<?xml version="1.0" encoding="UTF-8"?>
<!DOCTYPE svg PUBLIC "-//W3C//DTD SVG 1.1//EN" "http://www.w3.org/Graphics/SVG/1.1/DTD/svg11.dtd">
<svg version="1.2" width="105.84mm" height="105.84mm" viewBox="0 0 10584 10584" preserveAspectRatio="xMidYMid" fill-rule="evenodd" stroke-width="28.222" stroke-linejoin="round" xmlns="http://www.w3.org/2000/svg" xmlns:ooo="http://xml.openoffice.org/svg/export" xmlns:xlink="http://www.w3.org/1999/xlink" xmlns:presentation="http://sun.com/xmlns/staroffice/presentation" xmlns:smil="http://www.w3.org/2001/SMIL20/" xmlns:anim="urn:oasis:names:tc:opendocument:xmlns:animation:1.0" xmlns:svg="urn:oasis:names:tc:opendocument:xmlns:svg-compatible:1.0" xml:space="preserve">
 <defs class="ClipPathGroup">
  <clipPath id="presentation_clip_path" clipPathUnits="userSpaceOnUse">
   <rect x="0" y="0" width="10584" height="10584"/>
  </clipPath>
  <clipPath id="presentation_clip_path_shrink" clipPathUnits="userSpaceOnUse">
   <rect x="10" y="10" width="10563" height="10563"/>
  </clipPath>
 </defs>
 <defs class="TextShapeIndex">
  <g ooo:slide="id1" ooo:id-list="id3 id4 id5"/>
 </defs>
 <defs class="EmbeddedBulletChars">
  <g id="bullet-char-template-57356" transform="scale(0.00048828125,-0.00048828125)">
   <path d="M 580,1141 L 1163,571 580,0 -4,571 580,1141 Z"/>
  </g>
  <g id="bullet-char-template-57354" transform="scale(0.00048828125,-0.00048828125)">
   <path d="M 8,1128 L 1137,1128 1137,0 8,0 8,1128 Z"/>
  </g>
  <g id="bullet-char-template-10146" transform="scale(0.00048828125,-0.00048828125)">
   <path d="M 174,0 L 602,739 174,1481 1456,739 174,0 Z M 1358,739 L 309,1346 659,739 1358,739 Z"/>
  </g>
  <g id="bullet-char-template-10132" transform="scale(0.00048828125,-0.00048828125)">
   <path d="M 2015,739 L 1276,0 717,0 1260,543 174,543 174,936 1260,936 717,1481 1274,1481 2015,739 Z"/>
  </g>
  <g id="bullet-char-template-10007" transform="scale(0.00048828125,-0.00048828125)">
   <path d="M 0,-2 C -7,14 -16,27 -25,37 L 356,567 C 262,823 215,952 215,954 215,979 228,992 255,992 264,992 276,990 289,987 310,991 331,999 354,1012 L 381,999 492,748 772,1049 836,1024 860,1049 C 881,1039 901,1025 922,1006 886,937 835,863 770,784 769,783 710,716 594,584 L 774,223 C 774,196 753,168 711,139 L 727,119 C 717,90 699,76 672,76 641,76 570,178 457,381 L 164,-76 C 142,-110 111,-127 72,-127 30,-127 9,-110 8,-76 1,-67 -2,-52 -2,-32 -2,-23 -1,-13 0,-2 Z"/>
  </g>
  <g id="bullet-char-template-10004" transform="scale(0.00048828125,-0.00048828125)">
   <path d="M 285,-33 C 182,-33 111,30 74,156 52,228 41,333 41,471 41,549 55,616 82,672 116,743 169,778 240,778 293,778 328,747 346,684 L 369,508 C 377,444 397,411 428,410 L 1163,1116 C 1174,1127 1196,1133 1229,1133 1271,1133 1292,1118 1292,1087 L 1292,965 C 1292,929 1282,901 1262,881 L 442,47 C 390,-6 338,-33 285,-33 Z"/>
  </g>
  <g id="bullet-char-template-9679" transform="scale(0.00048828125,-0.00048828125)">
   <path d="M 813,0 C 632,0 489,54 383,161 276,268 223,411 223,592 223,773 276,916 383,1023 489,1130 632,1184 813,1184 992,1184 1136,1130 1245,1023 1353,916 1407,772 1407,592 1407,412 1353,268 1245,161 1136,54 992,0 813,0 Z"/>
  </g>
  <g id="bullet-char-template-8226" transform="scale(0.00048828125,-0.00048828125)">
   <path d="M 346,457 C 273,457 209,483 155,535 101,586 74,649 74,723 74,796 101,859 155,911 209,963 273,989 346,989 419,989 480,963 531,910 582,859 608,796 608,723 608,648 583,586 532,535 482,483 420,457 346,457 Z"/>
  </g>
  <g id="bullet-char-template-8211" transform="scale(0.00048828125,-0.00048828125)">
   <path d="M -4,459 L 1135,459 1135,606 -4,606 -4,459 Z"/>
  </g>
  <g id="bullet-char-template-61548" transform="scale(0.00048828125,-0.00048828125)">
   <path d="M 173,740 C 173,903 231,1043 346,1159 462,1274 601,1332 765,1332 928,1332 1067,1274 1183,1159 1299,1043 1357,903 1357,740 1357,577 1299,437 1183,322 1067,206 928,148 765,148 601,148 462,206 346,322 231,437 173,577 173,740 Z"/>
  </g>
 </defs>
 <g>
  <g id="id2" class="Master_Slide">
   <g id="bg-id2" class="Background"/>
   <g id="bo-id2" class="BackgroundObjects"/>
  </g>
 </g>
 <g class="SlideGroup">
  <g>
   <g id="container-id1">
    <g id="id1" class="Slide" clip-path="url(#presentation_clip_path)">
     <g class="Page">
      <g class="Graphic">
       <g id="id3">
        <rect class="BoundingBox" stroke="none" fill="none" x="0" y="0" width="10584" height="10584"/>
        <defs>
         <clipPath id="clip_path_1" clipPathUnits="userSpaceOnUse">
          <path d="M 0,0 L 10583,0 10583,10583 0,10583 0,0 Z"/>
         </clipPath>
        </defs>
        <g clip-path="url(#clip_path_1)"/>
        <defs>
         <clipPath id="clip_path_2" clipPathUnits="userSpaceOnUse">
          <path d="M 5005,8149 L 4044,6484 C 4262,6358 4419,6201 4545,5982 4923,5327 4699,4489 4044,4111 3389,3733 2550,3957 2172,4612 1794,5267 2019,6106 2674,6484 L 1713,8149 C 139,7240 -401,5225 507,3651 1416,2077 3431,1537 5005,2446 6579,3354 7119,5369 6210,6943 5907,7468 5530,7846 5005,8149 L 5005,8149 Z"/>
         </clipPath>
        </defs>
        <g clip-path="url(#clip_path_2)">
         <path fill="rgb(192,0,0)" stroke="none" d="M 8012,5076 C 8012,5840 7797,6589 7389,7250 6980,7911 6393,8460 5686,8842 4978,9223 4176,9424 3359,9424 2542,9424 1740,9223 1032,8842 325,8460 -263,7911 -671,7250 -1079,6589 -1294,5840 -1294,5076 -1294,4313 -1079,3564 -671,2903 -263,2242 325,1693 1032,1311 1740,930 2542,729 3359,729 4176,729 4978,930 5686,1311 6393,1693 6980,2242 7389,2903 7797,3564 8012,4313 8012,5076 L 8012,5076 Z"/>
         <path fill="rgb(192,0,0)" stroke="none" d="M 6718,5076 C 6718,5627 6563,6168 6268,6646 5973,7123 5549,7519 5038,7794 4528,8070 3949,8215 3359,8215 2769,8215 2190,8070 1679,7794 1169,7519 745,7123 450,6646 155,6168 0,5627 0,5076 0,4526 155,3984 450,3507 745,3030 1169,2634 1679,2359 2190,2083 2769,1938 3359,1938 3949,1938 4528,2083 5038,2359 5549,2634 5973,3030 6268,3507 6563,3984 6718,4526 6718,5076 L 6718,5076 Z"/>
         <path fill="rgb(194,0,0)" stroke="none" d="M 6677,5076 C 6677,5621 6524,6155 6232,6627 5941,7098 5522,7489 5018,7761 4514,8033 3941,8177 3359,8177 2776,8177 2204,8033 1700,7761 1195,7489 777,7098 485,6627 194,6155 41,5621 41,5076 41,4532 194,3998 485,3526 777,3055 1195,2664 1700,2392 2204,2120 2776,1976 3359,1976 3941,1976 4514,2120 5018,2392 5522,2664 5941,3055 6232,3526 6524,3998 6677,4532 6677,5076 L 6677,5076 Z"/>
         <path fill="rgb(197,0,0)" stroke="none" d="M 6636,5076 C 6636,5614 6485,6142 6197,6607 5910,7073 5496,7460 4998,7728 4499,7997 3934,8138 3359,8138 2784,8138 2218,7997 1720,7728 1222,7460 808,7073 521,6607 233,6142 82,5614 82,5076 82,4539 233,4011 521,3545 808,3080 1222,2693 1720,2425 2218,2156 2784,2014 3359,2014 3934,2014 4499,2156 4998,2425 5496,2693 5910,3080 6197,3545 6485,4011 6636,4539 6636,5076 L 6636,5076 Z"/>
         <path fill="rgb(199,0,0)" stroke="none" d="M 6595,5076 C 6595,5607 6446,6129 6162,6588 5878,7048 5469,7430 4977,7695 4485,7961 3927,8100 3359,8100 2791,8100 2233,7961 1741,7695 1249,7430 840,7048 556,6588 272,6129 122,5607 122,5076 122,4546 272,4024 556,3564 840,3105 1249,2723 1741,2458 2233,2192 2791,2052 3359,2052 3927,2052 4485,2192 4977,2458 5469,2723 5878,3105 6162,3564 6446,4024 6595,4546 6595,5076 L 6595,5076 Z"/>
         <path fill="rgb(201,0,0)" stroke="none" d="M 6555,5076 C 6555,5601 6407,6115 6127,6569 5846,7023 5443,7400 4957,7662 4471,7924 3920,8062 3359,8062 2798,8062 2247,7924 1761,7662 1275,7400 872,7023 591,6569 311,6115 163,5601 163,5076 163,4552 311,4037 591,3584 872,3130 1275,2753 1761,2491 2247,2229 2798,2091 3359,2091 3920,2091 4471,2229 4957,2491 5443,2753 5846,3130 6127,3584 6407,4037 6555,4552 6555,5076 L 6555,5076 Z"/>
         <path fill="rgb(203,0,0)" stroke="none" d="M 6514,5076 C 6514,5594 6368,6102 6091,6550 5814,6998 5416,7371 4936,7629 4457,7888 3913,8024 3359,8024 2805,8024 2261,7888 1781,7629 1302,7371 904,6998 627,6550 350,6102 204,5594 204,5076 204,4559 350,4051 627,3603 904,3154 1302,2782 1781,2524 2261,2265 2805,2129 3359,2129 3913,2129 4457,2265 4936,2524 5416,2782 5814,3154 6091,3603 6368,4051 6514,4559 6514,5076 L 6514,5076 Z"/>
         <path fill="rgb(206,0,0)" stroke="none" d="M 6473,5076 C 6473,5587 6329,6089 6056,6531 5783,6974 5389,7341 4916,7596 4443,7852 3906,7986 3359,7986 2812,7986 2275,7852 1802,7596 1328,7341 935,6974 662,6531 389,6089 245,5587 245,5076 245,4566 389,4064 662,3622 935,3179 1328,2812 1802,2557 2275,2301 2812,2167 3359,2167 3906,2167 4443,2301 4916,2557 5389,2812 5783,3179 6056,3622 6329,4064 6473,4566 6473,5076 L 6473,5076 Z"/>
         <path fill="rgb(208,0,0)" stroke="none" d="M 6432,5076 C 6432,5580 6290,6076 6021,6512 5751,6949 5363,7311 4896,7563 4428,7815 3898,7948 3359,7948 2819,7948 2289,7815 1822,7563 1355,7311 967,6949 697,6512 428,6076 286,5580 286,5076 286,4572 428,4077 697,3641 967,3204 1355,2842 1822,2590 2289,2338 2819,2205 3359,2205 3898,2205 4428,2338 4896,2590 5363,2842 5751,3204 6021,3641 6290,4077 6432,4572 6432,5076 L 6432,5076 Z"/>
         <path fill="rgb(210,0,0)" stroke="none" d="M 6392,5076 C 6392,5574 6251,6062 5985,6493 5719,6924 5336,7282 4875,7530 4414,7779 3891,7910 3359,7910 2827,7910 2304,7779 1843,7530 1382,7282 999,6924 733,6493 466,6062 326,5574 326,5076 326,4579 466,4090 733,3660 999,3229 1382,2871 1843,2623 2304,2374 2827,2243 3359,2243 3891,2243 4414,2374 4875,2623 5336,2871 5719,3229 5985,3660 6251,4090 6392,4579 6392,5076 L 6392,5076 Z"/>
         <path fill="rgb(212,0,0)" stroke="none" d="M 6351,5076 C 6351,5567 6212,6049 5950,6474 5687,6899 5310,7252 4855,7497 4400,7743 3884,7872 3359,7872 2834,7872 2318,7743 1863,7497 1408,7252 1030,6899 768,6474 505,6049 367,5567 367,5076 367,4586 505,4104 768,3679 1030,3254 1408,2901 1863,2656 2318,2410 2834,2281 3359,2281 3884,2281 4400,2410 4855,2656 5310,2901 5687,3254 5950,3679 6212,4104 6351,4586 6351,5076 L 6351,5076 Z"/>
         <path fill="rgb(215,0,0)" stroke="none" d="M 6310,5076 C 6310,5560 6174,6036 5915,6455 5656,6874 5283,7222 4834,7464 4386,7706 3877,7834 3359,7834 2841,7834 2332,7706 1883,7464 1435,7222 1062,6874 803,6455 544,6036 408,5560 408,5076 408,4592 544,4117 803,3698 1062,3279 1435,2931 1883,2689 2332,2447 2841,2319 3359,2319 3877,2319 4386,2447 4834,2689 5283,2931 5656,3279 5915,3698 6174,4117 6310,4592 6310,5076 L 6310,5076 Z"/>
         <path fill="rgb(217,0,0)" stroke="none" d="M 6269,5076 C 6269,5554 6135,6023 5879,6436 5624,6849 5256,7193 4814,7431 4372,7670 3870,7796 3359,7796 2848,7796 2346,7670 1904,7431 1461,7193 1094,6849 839,6436 583,6023 449,5554 449,5076 449,4599 583,4130 839,3717 1094,3304 1461,2960 1904,2722 2346,2483 2848,2357 3359,2357 3870,2357 4372,2483 4814,2722 5256,2960 5624,3304 5879,3717 6135,4130 6269,4599 6269,5076 L 6269,5076 Z"/>
         <path fill="rgb(219,0,0)" stroke="none" d="M 6228,5076 C 6228,5547 6096,6009 5844,6417 5592,6824 5230,7163 4794,7398 4357,7634 3863,7757 3359,7757 2855,7757 2360,7634 1924,7398 1488,7163 1126,6824 874,6417 622,6009 489,5547 489,5076 489,4606 622,4144 874,3736 1126,3328 1488,2990 1924,2755 2360,2519 2855,2395 3359,2395 3863,2395 4357,2519 4794,2755 5230,2990 5592,3328 5844,3736 6096,4144 6228,4606 6228,5076 L 6228,5076 Z"/>
         <path fill="rgb(221,0,0)" stroke="none" d="M 6188,5076 C 6188,5540 6057,5996 5809,6398 5560,6800 5203,7133 4773,7365 4343,7597 3855,7719 3359,7719 2862,7719 2375,7597 1945,7365 1515,7133 1157,6800 909,6398 661,5996 530,5540 530,5076 530,4613 661,4157 909,3755 1157,3353 1515,3020 1945,2788 2375,2556 2862,2434 3359,2434 3855,2434 4343,2556 4773,2788 5203,3020 5560,3353 5809,3755 6057,4157 6188,4613 6188,5076 L 6188,5076 Z"/>
         <path fill="rgb(224,0,0)" stroke="none" d="M 6147,5076 C 6147,5534 6018,5983 5773,6379 5529,6775 5177,7104 4753,7332 4329,7561 3848,7681 3359,7681 2870,7681 2389,7561 1965,7332 1541,7104 1189,6775 945,6379 700,5983 571,5534 571,5076 571,4619 700,4170 945,3774 1189,3378 1541,3049 1965,2821 2389,2592 2870,2472 3359,2472 3848,2472 4329,2592 4753,2821 5177,3049 5529,3378 5773,3774 6018,4170 6147,4619 6147,5076 L 6147,5076 Z"/>
         <path fill="rgb(226,0,0)" stroke="none" d="M 6106,5076 C 6106,5527 5979,5970 5738,6360 5497,6750 5150,7074 4732,7299 4315,7524 3841,7643 3359,7643 2877,7643 2403,7524 1985,7299 1568,7074 1221,6750 980,6360 739,5970 612,5527 612,5076 612,4626 739,4183 980,3793 1221,3403 1568,3079 1985,2854 2403,2628 2877,2510 3359,2510 3841,2510 4315,2628 4732,2854 5150,3079 5497,3403 5738,3793 5979,4183 6106,4626 6106,5076 L 6106,5076 Z"/>
         <path fill="rgb(228,0,0)" stroke="none" d="M 6065,5076 C 6065,5520 5940,5956 5703,6341 5465,6725 5123,7044 4712,7266 4301,7488 3834,7605 3359,7605 2884,7605 2417,7488 2006,7266 1594,7044 1253,6725 1015,6341 778,5956 653,5520 653,5076 653,4633 778,4197 1015,3812 1253,3428 1594,3109 2006,2887 2417,2665 2884,2548 3359,2548 3834,2548 4301,2665 4712,2887 5123,3109 5465,3428 5703,3812 5940,4197 6065,4633 6065,5076 L 6065,5076 Z"/>
         <path fill="rgb(230,0,0)" stroke="none" d="M 6024,5076 C 6024,5514 5901,5943 5667,6322 5433,6700 5097,7015 4692,7233 4286,7452 3827,7567 3359,7567 2891,7567 2431,7452 2026,7233 1621,7015 1284,6700 1050,6322 817,5943 693,5514 693,5076 693,4639 817,4210 1050,3831 1284,3453 1621,3138 2026,2920 2431,2701 2891,2586 3359,2586 3827,2586 4286,2701 4692,2920 5097,3138 5433,3453 5667,3831 5901,4210 6024,4639 6024,5076 L 6024,5076 Z"/>
         <path fill="rgb(233,0,0)" stroke="none" d="M 5984,5076 C 5984,5507 5862,5930 5632,6303 5402,6675 5070,6985 4671,7200 4272,7415 3820,7529 3359,7529 2898,7529 2446,7415 2047,7200 1648,6985 1316,6675 1086,6303 855,5930 734,5507 734,5076 734,4646 855,4223 1086,3850 1316,3477 1648,3168 2047,2953 2446,2737 2898,2624 3359,2624 3820,2624 4272,2737 4671,2953 5070,3168 5402,3477 5632,3850 5862,4223 5984,4646 5984,5076 L 5984,5076 Z"/>
         <path fill="rgb(235,0,0)" stroke="none" d="M 5943,5076 C 5943,5500 5823,5917 5597,6284 5370,6651 5044,6955 4651,7167 4258,7379 3812,7491 3359,7491 2905,7491 2460,7379 2067,7167 1674,6955 1348,6651 1121,6284 894,5917 775,5500 775,5076 775,4653 894,4236 1121,3869 1348,3502 1674,3198 2067,2986 2460,2774 2905,2662 3359,2662 3812,2662 4258,2774 4651,2986 5044,3198 5370,3502 5597,3869 5823,4236 5943,4653 5943,5076 L 5943,5076 Z"/>
         <path fill="rgb(237,0,0)" stroke="none" d="M 5902,5076 C 5902,5494 5785,5903 5561,6264 5338,6626 5017,6926 4630,7134 4244,7343 3805,7453 3359,7453 2912,7453 2474,7343 2087,7134 1701,6926 1380,6626 1156,6264 933,5903 816,5494 816,5076 816,4659 933,4250 1156,3888 1380,3527 1701,3227 2087,3019 2474,2810 2912,2700 3359,2700 3805,2700 4244,2810 4630,3019 5017,3227 5338,3527 5561,3888 5785,4250 5902,4659 5902,5076 L 5902,5076 Z"/>
         <path fill="rgb(239,0,0)" stroke="none" d="M 5861,5076 C 5861,5487 5746,5890 5526,6245 5306,6601 4991,6896 4610,7101 4230,7306 3798,7414 3359,7414 2920,7414 2488,7306 2108,7101 1727,6896 1411,6601 1192,6245 972,5890 857,5487 857,5076 857,4666 972,4263 1192,3907 1411,3552 1727,3257 2108,3052 2488,2846 2920,2738 3359,2738 3798,2738 4230,2846 4610,3052 4991,3257 5306,3552 5526,3907 5746,4263 5861,4666 5861,5076 L 5861,5076 Z"/>
         <path fill="rgb(242,0,0)" stroke="none" d="M 5821,5076 C 5821,5480 5707,5877 5491,6226 5275,6576 4964,6866 4590,7068 4215,7270 3791,7376 3359,7376 2927,7376 2502,7270 2128,7068 1754,6866 1443,6576 1227,6226 1011,5877 897,5480 897,5076 897,4673 1011,4276 1227,3926 1443,3577 1754,3287 2128,3085 2502,2883 2927,2777 3359,2777 3791,2777 4215,2883 4590,3085 4964,3287 5275,3577 5491,3926 5707,4276 5821,4673 5821,5076 L 5821,5076 Z"/>
         <path fill="rgb(244,0,0)" stroke="none" d="M 5780,5076 C 5780,5473 5668,5863 5455,6207 5243,6551 4937,6837 4569,7035 4201,7234 3784,7338 3359,7338 2934,7338 2517,7234 2149,7035 1780,6837 1475,6551 1262,6207 1050,5863 938,5473 938,5076 938,4679 1050,4289 1262,3946 1475,3602 1780,3316 2149,3118 2517,2919 2934,2815 3359,2815 3784,2815 4201,2919 4569,3118 4937,3316 5243,3602 5455,3946 5668,4289 5780,4679 5780,5076 L 5780,5076 Z"/>
         <path fill="rgb(246,0,0)" stroke="none" d="M 5739,5076 C 5739,5467 5629,5850 5420,6188 5211,6526 4911,6807 4549,7002 4187,7197 3777,7300 3359,7300 2941,7300 2531,7197 2169,7002 1807,6807 1507,6526 1298,6188 1089,5850 979,5467 979,5076 979,4686 1089,4303 1298,3965 1507,3627 1807,3346 2169,3151 2531,2956 2941,2853 3359,2853 3777,2853 4187,2956 4549,3151 4911,3346 5211,3627 5420,3965 5629,4303 5739,4686 5739,5076 L 5739,5076 Z"/>
         <path fill="rgb(248,0,0)" stroke="none" d="M 5698,5076 C 5698,5460 5590,5837 5385,6169 5179,6501 4884,6777 4529,6969 4173,7161 3770,7262 3359,7262 2948,7262 2545,7161 2189,6969 1834,6777 1538,6501 1333,6169 1128,5837 1020,5460 1020,5076 1020,4693 1128,4316 1333,3984 1538,3651 1834,3375 2189,3184 2545,2992 2948,2891 3359,2891 3770,2891 4173,2992 4529,3184 4884,3375 5179,3651 5385,3984 5590,4316 5698,4693 5698,5076 L 5698,5076 Z"/>
         <path fill="rgb(251,0,0)" stroke="none" d="M 5657,5076 C 5657,5453 5551,5824 5349,6150 5148,6477 4858,6748 4508,6936 4159,7125 3762,7224 3359,7224 2955,7224 2559,7125 2210,6936 1860,6748 1570,6477 1368,6150 1167,5824 1060,5453 1060,5076 1060,4699 1167,4329 1368,4003 1570,3676 1860,3405 2210,3217 2559,3028 2955,2929 3359,2929 3762,2929 4159,3028 4508,3217 4858,3405 5148,3676 5349,4003 5551,4329 5657,4699 5657,5076 L 5657,5076 Z"/>
         <path fill="rgb(253,0,0)" stroke="none" d="M 5617,5076 C 5617,5447 5512,5810 5314,6131 5116,6452 4831,6718 4488,6903 4145,7088 3755,7186 3359,7186 2963,7186 2573,7088 2230,6903 1887,6718 1602,6452 1404,6131 1206,5810 1101,5447 1101,5076 1101,4706 1206,4342 1404,4022 1602,3701 1887,3435 2230,3250 2573,3065 2963,2967 3359,2967 3755,2967 4145,3065 4488,3250 4831,3435 5116,3701 5314,4022 5512,4342 5617,4706 5617,5076 L 5617,5076 Z"/>
         <path fill="rgb(255,0,0)" stroke="none" d="M 5576,5076 C 5576,5440 5473,5797 5279,6112 5084,6427 4804,6688 4467,6870 4130,7052 3748,7148 3359,7148 2970,7148 2587,7052 2250,6870 1913,6688 1634,6427 1439,6112 1244,5797 1142,5440 1142,5076 1142,4713 1244,4356 1439,4041 1634,3726 1913,3464 2250,3283 2587,3101 2970,3005 3359,3005 3748,3005 4130,3101 4467,3283 4804,3464 5084,3726 5279,4041 5473,4356 5576,4713 5576,5076 L 5576,5076 Z"/>
         <path fill="rgb(254,0,0)" stroke="none" d="M 5535,5076 C 5535,5433 5435,5784 5244,6093 5053,6402 4778,6659 4447,6838 4116,7016 3741,7110 3359,7110 2977,7110 2602,7016 2271,6838 1940,6659 1665,6402 1474,6093 1283,5784 1182,5433 1182,5076 1182,4719 1283,4369 1474,4060 1665,3750 1940,3494 2271,3315 2602,3137 2977,3043 3359,3043 3741,3043 4116,3137 4447,3315 4778,3494 5053,3750 5244,4060 5435,4369 5535,4719 5535,5076 L 5535,5076 Z"/>
         <path fill="rgb(253,0,0)" stroke="none" d="M 5495,5076 C 5495,5427 5396,5771 5209,6074 5021,6378 4752,6630 4427,6805 4102,6980 3734,7072 3359,7072 2984,7072 2616,6980 2291,6805 1966,6630 1696,6378 1509,6074 1321,5771 1223,5427 1223,5076 1223,4726 1321,4382 1509,4078 1696,3775 1966,3523 2291,3348 2616,3173 2984,3081 3359,3081 3734,3081 4102,3173 4427,3348 4752,3523 5021,3775 5209,4078 5396,4382 5495,4726 5495,5076 L 5495,5076 Z"/>
         <path fill="rgb(252,0,0)" stroke="none" d="M 5455,5076 C 5455,5420 5358,5758 5174,6056 4990,6353 4726,6600 4407,6772 4088,6944 3727,7035 3359,7035 2991,7035 2630,6944 2311,6772 1992,6600 1728,6353 1544,6056 1360,5758 1263,5420 1263,5076 1263,4733 1360,4395 1544,4097 1728,3800 1992,3552 2311,3381 2630,3209 2991,3118 3359,3118 3727,3118 4088,3209 4407,3381 4726,3552 4990,3800 5174,4097 5358,4395 5455,4733 5455,5076 L 5455,5076 Z"/>
         <path fill="rgb(251,0,0)" stroke="none" d="M 5415,5076 C 5415,5414 5320,5745 5139,6037 4959,6329 4699,6571 4387,6740 4074,6908 3720,6997 3359,6997 2998,6997 2644,6908 2331,6740 2019,6571 1759,6329 1579,6037 1398,5745 1303,5414 1303,5076 1303,4739 1398,4408 1579,4116 1759,3824 2019,3582 2331,3413 2644,3245 2998,3156 3359,3156 3720,3156 4074,3245 4387,3413 4699,3582 4959,3824 5139,4116 5320,4408 5415,4739 5415,5076 L 5415,5076 Z"/>
         <path fill="rgb(250,0,0)" stroke="none" d="M 5374,5076 C 5374,5407 5281,5732 5104,6018 4927,6304 4673,6542 4367,6707 4060,6872 3713,6959 3359,6959 3005,6959 2658,6872 2351,6707 2045,6542 1790,6304 1614,6018 1437,5732 1344,5407 1344,5076 1344,4746 1437,4421 1614,4135 1790,3849 2045,3611 2351,3446 2658,3280 3005,3193 3359,3193 3713,3193 4060,3280 4367,3446 4673,3611 4927,3849 5104,4135 5281,4421 5374,4746 5374,5076 L 5374,5076 Z"/>
         <path fill="rgb(249,0,0)" stroke="none" d="M 5334,5076 C 5334,5400 5243,5719 5069,5999 4896,6280 4647,6513 4346,6675 4046,6836 3706,6922 3359,6922 3012,6922 2672,6836 2371,6675 2071,6513 1822,6280 1648,5999 1475,5719 1384,5400 1384,5076 1384,4753 1475,4434 1648,4154 1822,3873 2071,3640 2371,3478 2672,3316 3012,3231 3359,3231 3706,3231 4046,3316 4346,3478 4647,3640 4896,3873 5069,4154 5243,4434 5334,4753 5334,5076 L 5334,5076 Z"/>
         <path fill="rgb(248,0,0)" stroke="none" d="M 5294,5076 C 5294,5394 5204,5705 5034,5980 4865,6255 4620,6483 4326,6642 4032,6801 3699,6884 3359,6884 3019,6884 2686,6801 2392,6642 2097,6483 1853,6255 1683,5980 1514,5705 1424,5394 1424,5076 1424,4759 1514,4447 1683,4173 1853,3898 2097,3670 2392,3511 2686,3352 3019,3269 3359,3269 3699,3269 4032,3352 4326,3511 4620,3670 4865,3898 5034,4173 5204,4447 5294,4759 5294,5076 L 5294,5076 Z"/>
         <path fill="rgb(247,0,0)" stroke="none" d="M 5253,5076 C 5253,5387 5166,5692 5000,5961 4833,6231 4594,6454 4306,6609 4018,6765 3691,6846 3359,6846 3026,6846 2700,6765 2412,6609 2124,6454 1885,6231 1718,5961 1552,5692 1464,5387 1464,5076 1464,4766 1552,4461 1718,4191 1885,3922 2124,3699 2412,3544 2700,3388 3026,3306 3359,3306 3691,3306 4018,3388 4306,3544 4594,3699 4833,3922 5000,4191 5166,4461 5253,4766 5253,5076 L 5253,5076 Z"/>
         <path fill="rgb(246,0,0)" stroke="none" d="M 5213,5076 C 5213,5381 5127,5679 4965,5943 4802,6206 4568,6425 4286,6577 4004,6729 3684,6809 3359,6809 3033,6809 2714,6729 2432,6577 2150,6425 1916,6206 1753,5943 1590,5679 1505,5381 1505,5076 1505,4772 1590,4474 1753,4210 1916,3947 2150,3728 2432,3576 2714,3424 3033,3344 3359,3344 3684,3344 4004,3424 4286,3576 4568,3728 4802,3947 4965,4210 5127,4474 5213,4772 5213,5076 L 5213,5076 Z"/>
         <path fill="rgb(245,0,0)" stroke="none" d="M 5173,5076 C 5173,5374 5089,5666 4930,5924 4771,6181 4542,6395 4266,6544 3990,6693 3677,6771 3359,6771 3041,6771 2728,6693 2452,6544 2176,6395 1947,6181 1788,5924 1629,5666 1545,5374 1545,5076 1545,4779 1629,4487 1788,4229 1947,3971 2176,3758 2452,3609 2728,3460 3041,3382 3359,3382 3677,3382 3990,3460 4266,3609 4542,3758 4771,3971 4930,4229 5089,4487 5173,4779 5173,5076 L 5173,5076 Z"/>
         <path fill="rgb(244,0,0)" stroke="none" d="M 5132,5076 C 5132,5367 5050,5653 4895,5905 4739,6157 4515,6366 4246,6511 3976,6657 3670,6733 3359,6733 3048,6733 2742,6657 2472,6511 2203,6366 1979,6157 1823,5905 1667,5653 1585,5367 1585,5076 1585,4786 1667,4500 1823,4248 1979,3996 2203,3787 2472,3641 2742,3496 3048,3419 3359,3419 3670,3419 3976,3496 4246,3641 4515,3787 4739,3996 4895,4248 5050,4500 5132,4786 5132,5076 L 5132,5076 Z"/>
         <path fill="rgb(243,0,0)" stroke="none" d="M 5092,5076 C 5092,5361 5012,5640 4860,5886 4708,6132 4489,6337 4226,6479 3962,6621 3663,6696 3359,6696 3055,6696 2756,6621 2492,6479 2229,6337 2010,6132 1858,5886 1706,5640 1626,5361 1626,5076 1626,4792 1706,4513 1858,4267 2010,4021 2229,3816 2492,3674 2756,3532 3055,3457 3359,3457 3663,3457 3962,3532 4226,3674 4489,3816 4708,4021 4860,4267 5012,4513 5092,4792 5092,5076 L 5092,5076 Z"/>
         <path fill="rgb(242,0,0)" stroke="none" d="M 5052,5076 C 5052,5354 4974,5627 4825,5867 4676,6108 4463,6307 4205,6446 3948,6585 3656,6658 3359,6658 3062,6658 2770,6585 2512,6446 2255,6307 2041,6108 1893,5867 1744,5627 1666,5354 1666,5076 1666,4799 1744,4526 1893,4286 2041,4045 2255,3845 2512,3707 2770,3568 3062,3495 3359,3495 3656,3495 3948,3568 4205,3707 4463,3845 4676,4045 4825,4286 4974,4526 5052,4799 5052,5076 L 5052,5076 Z"/>
         <path fill="rgb(241,0,0)" stroke="none" d="M 5011,5076 C 5011,5347 4935,5614 4790,5848 4645,6083 4436,6278 4185,6414 3934,6549 3649,6620 3359,6620 3069,6620 2784,6549 2533,6414 2281,6278 2073,6083 1928,5848 1783,5614 1706,5347 1706,5076 1706,4805 1783,4539 1928,4304 2073,4070 2281,3875 2533,3739 2784,3604 3069,3532 3359,3532 3649,3532 3934,3604 4185,3739 4436,3875 4645,4070 4790,4304 4935,4539 5011,4805 5011,5076 L 5011,5076 Z"/>
         <path fill="rgb(240,0,0)" stroke="none" d="M 4971,5076 C 4971,5341 4897,5601 4755,5830 4614,6059 4410,6249 4165,6381 3920,6513 3642,6583 3359,6583 3076,6583 2798,6513 2553,6381 2308,6249 2104,6059 1963,5830 1821,5601 1747,5341 1747,5076 1747,4812 1821,4552 1963,4323 2104,4094 2308,3904 2553,3772 2798,3640 3076,3570 3359,3570 3642,3570 3920,3640 4165,3772 4410,3904 4614,4094 4755,4323 4897,4552 4971,4812 4971,5076 L 4971,5076 Z"/>
         <path fill="rgb(238,0,0)" stroke="none" d="M 4931,5076 C 4931,5334 4858,5588 4720,5811 4582,6034 4384,6219 4145,6348 3906,6477 3635,6545 3359,6545 3083,6545 2812,6477 2573,6348 2334,6219 2136,6034 1998,5811 1860,5588 1787,5334 1787,5076 1787,4819 1860,4565 1998,4342 2136,4119 2334,3933 2573,3805 2812,3676 3083,3608 3359,3608 3635,3608 3906,3676 4145,3805 4384,3933 4582,4119 4720,4342 4858,4565 4931,4819 4931,5076 L 4931,5076 Z"/>
         <path fill="rgb(237,0,0)" stroke="none" d="M 4891,5076 C 4891,5328 4820,5574 4685,5792 4551,6010 4358,6190 4125,6316 3892,6441 3628,6507 3359,6507 3090,6507 2826,6441 2593,6316 2360,6190 2167,6010 2032,5792 1898,5574 1827,5328 1827,5076 1827,4825 1898,4578 2032,4361 2167,4143 2360,3963 2593,3837 2826,3712 3090,3645 3359,3645 3628,3645 3892,3712 4125,3837 4358,3963 4551,4143 4685,4361 4820,4578 4891,4825 4891,5076 L 4891,5076 Z"/>
         <path fill="rgb(236,0,0)" stroke="none" d="M 4850,5076 C 4850,5321 4781,5561 4650,5773 4520,5985 4331,6161 4105,6283 3878,6405 3621,6470 3359,6470 3097,6470 2840,6405 2613,6283 2387,6161 2198,5985 2067,5773 1936,5561 1868,5321 1868,5076 1868,4832 1936,4592 2067,4380 2198,4168 2387,3992 2613,3870 2840,3747 3097,3683 3359,3683 3621,3683 3878,3747 4105,3870 4331,3992 4520,4168 4650,4380 4781,4592 4850,4832 4850,5076 L 4850,5076 Z"/>
         <path fill="rgb(235,0,0)" stroke="none" d="M 4810,5076 C 4810,5314 4743,5548 4616,5754 4488,5960 4305,6132 4084,6251 3864,6370 3614,6432 3359,6432 3104,6432 2854,6370 2633,6251 2413,6132 2230,5960 2102,5754 1975,5548 1908,5314 1908,5076 1908,4838 1975,4605 2102,4399 2230,4192 2413,4021 2633,3902 2854,3783 3104,3721 3359,3721 3614,3721 3864,3783 4084,3902 4305,4021 4488,4192 4616,4399 4743,4605 4810,4838 4810,5076 L 4810,5076 Z"/>
         <path fill="rgb(234,0,0)" stroke="none" d="M 4770,5076 C 4770,5308 4704,5535 4581,5735 4457,5936 4279,6102 4064,6218 3850,6334 3607,6395 3359,6395 3111,6395 2868,6334 2654,6218 2439,6102 2261,5936 2137,5735 2013,5535 1948,5308 1948,5076 1948,4845 2013,4618 2137,4417 2261,4217 2439,4051 2654,3935 2868,3819 3111,3758 3359,3758 3607,3758 3850,3819 4064,3935 4279,4051 4457,4217 4581,4417 4704,4618 4770,4845 4770,5076 L 4770,5076 Z"/>
         <path fill="rgb(233,0,0)" stroke="none" d="M 4729,5076 C 4729,5301 4666,5522 4546,5717 4425,5911 4252,6073 4044,6185 3836,6298 3599,6357 3359,6357 3118,6357 2882,6298 2674,6185 2465,6073 2292,5911 2172,5717 2052,5522 1988,5301 1988,5076 1988,4852 2052,4631 2172,4436 2292,4242 2465,4080 2674,3968 2882,3855 3118,3796 3359,3796 3599,3796 3836,3855 4044,3968 4252,4080 4425,4242 4546,4436 4666,4631 4729,4852 4729,5076 L 4729,5076 Z"/>
         <path fill="rgb(232,0,0)" stroke="none" d="M 4689,5076 C 4689,5295 4628,5509 4511,5698 4394,5887 4226,6044 4024,6153 3822,6262 3592,6319 3359,6319 3125,6319 2896,6262 2694,6153 2492,6044 2324,5887 2207,5698 2090,5509 2029,5295 2029,5076 2029,4858 2090,4644 2207,4455 2324,4266 2492,4109 2694,4000 2896,3891 3125,3834 3359,3834 3592,3834 3822,3891 4024,4000 4226,4109 4394,4266 4511,4455 4628,4644 4689,4858 4689,5076 L 4689,5076 Z"/>
         <path fill="rgb(231,0,0)" stroke="none" d="M 4649,5076 C 4649,5288 4589,5496 4476,5679 4363,5862 4200,6014 4004,6120 3808,6226 3585,6282 3359,6282 3132,6282 2910,6226 2714,6120 2518,6014 2355,5862 2242,5679 2129,5496 2069,5288 2069,5076 2069,4865 2129,4657 2242,4474 2355,4291 2518,4139 2714,4033 2910,3927 3132,3871 3359,3871 3585,3871 3808,3927 4004,4033 4200,4139 4363,4291 4476,4474 4589,4657 4649,4865 4649,5076 L 4649,5076 Z"/>
         <path fill="rgb(230,0,0)" stroke="none" d="M 4608,5076 C 4608,5281 4551,5483 4441,5660 4331,5838 4174,5985 3984,6087 3794,6190 3578,6244 3359,6244 3140,6244 2924,6190 2734,6087 2544,5985 2386,5838 2277,5660 2167,5483 2109,5281 2109,5076 2109,4872 2167,4670 2277,4493 2386,4315 2544,4168 2734,4065 2924,3963 3140,3909 3359,3909 3578,3909 3794,3963 3984,4065 4174,4168 4331,4315 4441,4493 4551,4670 4608,4872 4608,5076 L 4608,5076 Z"/>
         <path fill="rgb(229,0,0)" stroke="none" d="M 4568,5076 C 4568,5275 4512,5470 4406,5641 4300,5813 4147,5956 3964,6055 3780,6154 3571,6206 3359,6206 3147,6206 2938,6154 2754,6055 2570,5956 2418,5813 2312,5641 2206,5470 2150,5275 2150,5076 2150,4878 2206,4683 2312,4512 2418,4340 2570,4197 2754,4098 2938,3999 3147,3947 3359,3947 3571,3947 3780,3999 3964,4098 4147,4197 4300,4340 4406,4512 4512,4683 4568,4878 4568,5076 L 4568,5076 Z"/>
         <path fill="rgb(228,0,0)" stroke="none" d="M 4528,5076 C 4528,5268 4474,5456 4371,5622 4269,5789 4121,5926 3943,6022 3766,6118 3564,6169 3359,6169 3154,6169 2952,6118 2774,6022 2597,5926 2449,5789 2347,5622 2244,5456 2190,5268 2190,5076 2190,4885 2244,4696 2347,4530 2449,4364 2597,4226 2774,4131 2952,4035 3154,3984 3359,3984 3564,3984 3766,4035 3943,4131 4121,4226 4269,4364 4371,4530 4474,4696 4528,4885 4528,5076 L 4528,5076 Z"/>
         <path fill="rgb(227,0,0)" stroke="none" d="M 4488,5076 C 4488,5262 4435,5443 4336,5604 4237,5764 4095,5897 3923,5990 3752,6082 3557,6131 3359,6131 3161,6131 2966,6082 2795,5990 2623,5897 2481,5764 2382,5604 2282,5443 2230,5262 2230,5076 2230,4891 2282,4710 2382,4549 2481,4389 2623,4256 2795,4163 2966,4071 3161,4022 3359,4022 3557,4022 3752,4071 3923,4163 4095,4256 4237,4389 4336,4549 4435,4710 4488,4891 4488,5076 L 4488,5076 Z"/>
         <path fill="rgb(226,0,0)" stroke="none" d="M 4447,5076 C 4447,5255 4397,5430 4301,5585 4206,5739 4068,5868 3903,5957 3738,6046 3550,6093 3359,6093 3168,6093 2980,6046 2815,5957 2649,5868 2512,5739 2416,5585 2321,5430 2271,5255 2271,5076 2271,4898 2321,4723 2416,4568 2512,4413 2649,4285 2815,4196 2980,4107 3168,4060 3359,4060 3550,4060 3738,4107 3903,4196 4068,4285 4206,4413 4301,4568 4397,4723 4447,4898 4447,5076 L 4447,5076 Z"/>
         <path fill="rgb(225,0,0)" stroke="none" d="M 4407,5076 C 4407,5248 4358,5417 4266,5566 4175,5715 4042,5838 3883,5924 3724,6010 3543,6056 3359,6056 3175,6056 2994,6010 2835,5924 2676,5838 2543,5715 2451,5566 2359,5417 2311,5248 2311,5076 2311,4905 2359,4736 2451,4587 2543,4438 2676,4314 2835,4228 2994,4143 3175,4097 3359,4097 3543,4097 3724,4143 3883,4228 4042,4314 4175,4438 4266,4587 4358,4736 4407,4905 4407,5076 L 4407,5076 Z"/>
         <path fill="rgb(224,0,0)" stroke="none" d="M 4367,5076 C 4367,5242 4320,5404 4232,5547 4143,5690 4016,5809 3863,5892 3710,5974 3536,6018 3359,6018 3182,6018 3008,5974 2855,5892 2702,5809 2575,5690 2486,5547 2398,5404 2351,5242 2351,5076 2351,4911 2398,4749 2486,4606 2575,4463 2702,4344 2855,4261 3008,4178 3182,4135 3359,4135 3536,4135 3710,4178 3863,4261 4016,4344 4143,4463 4232,4606 4320,4749 4367,4911 4367,5076 L 4367,5076 Z"/>
        </g>
        <g clip-path="url(#clip_path_1)">
         <path fill="none" stroke="rgb(0,0,0)" stroke-width="132" stroke-linejoin="miter" d="M 5005,8149 L 4044,6484 C 4262,6358 4419,6201 4545,5982 4923,5327 4699,4489 4044,4111 3389,3733 2550,3957 2172,4612 1794,5267 2019,6106 2674,6484 L 1713,8149 C 139,7240 -401,5225 507,3651 1416,2077 3431,1537 5005,2446 6579,3354 7119,5369 6210,6943 5907,7468 5530,7846 5005,8149 Z"/>
        </g>
        <defs>
         <clipPath id="clip_path_3" clipPathUnits="userSpaceOnUse">
          <path d="M 6382,7170 C 6604,7405 6740,7721 6740,8069 6740,8233 6710,8390 6655,8534 6840,8567 7031,8584 7225,8584 9042,8584 10517,7109 10517,5291 10517,3474 9041,1999 7224,1999 7037,1999 6854,2015 6675,2045 6731,2191 6763,2349 6763,2515 6763,2869 6621,3191 6392,3427 6758,3957 6972,4599 6972,5291 6972,5989 6754,6637 6382,7170 L 6382,7170 Z"/>
         </clipPath>
        </defs>
        <g clip-path="url(#clip_path_3)">
         <path fill="rgb(192,0,0)" stroke="none" d="M 11890,5292 C 11890,6109 11673,6912 11261,7620 10850,8328 10258,8916 9546,9324 8833,9733 8025,9948 7202,9948 6379,9948 5571,9733 4858,9324 4146,8916 3554,8328 3142,7620 2731,6912 2514,6109 2514,5292 2514,4474 2731,3671 3142,2963 3554,2255 4146,1667 4858,1259 5571,850 6379,635 7202,635 8025,635 8833,850 9546,1259 10258,1667 10850,2255 11261,2963 11673,3671 11890,4474 11890,5292 L 11890,5292 Z"/>
         <path fill="rgb(192,0,0)" stroke="none" d="M 10583,5292 C 10583,5881 10427,6460 10130,6971 9833,7481 9406,7905 8892,8200 8378,8495 7795,8650 7202,8650 6609,8650 6026,8495 5512,8200 4998,7905 4571,7481 4274,6971 3977,6460 3821,5881 3821,5292 3821,4702 3977,4123 4274,3612 4571,3102 4998,2678 5512,2383 6026,2088 6609,1933 7202,1933 7795,1933 8378,2088 8892,2383 9406,2678 9833,3102 10130,3612 10427,4123 10583,4702 10583,5292 L 10583,5292 Z"/>
         <path fill="rgb(194,0,0)" stroke="none" d="M 10543,5292 C 10543,5874 10389,6447 10096,6951 9802,7456 9380,7875 8873,8166 8365,8457 7788,8611 7202,8611 6615,8611 6039,8457 5531,8166 5023,7875 4602,7456 4308,6951 4015,6447 3861,5874 3861,5292 3861,4709 4015,4137 4308,3632 4602,3127 5023,2708 5531,2417 6039,2126 6615,1972 7202,1972 7788,1972 8365,2126 8873,2417 9380,2708 9802,3127 10096,3632 10389,4137 10543,4709 10543,5292 L 10543,5292 Z"/>
         <path fill="rgb(196,0,0)" stroke="none" d="M 10504,5292 C 10504,5867 10351,6433 10061,6931 9771,7430 9355,7844 8853,8132 8351,8420 7782,8571 7202,8571 6622,8571 6053,8420 5551,8132 5049,7844 4633,7430 4343,6931 4053,6433 3900,5867 3900,5292 3900,4716 4053,4150 4343,3652 4633,3153 5049,2739 5551,2451 6053,2163 6622,2012 7202,2012 7782,2012 8351,2163 8853,2451 9355,2739 9771,3153 10061,3652 10351,4150 10504,4716 10504,5292 L 10504,5292 Z"/>
         <path fill="rgb(199,0,0)" stroke="none" d="M 10464,5292 C 10464,5860 10313,6419 10027,6912 9741,7404 9329,7813 8833,8098 8337,8382 7775,8532 7202,8532 6629,8532 6067,8382 5571,8098 5075,7813 4663,7404 4377,6912 4091,6419 3940,5860 3940,5292 3940,4723 4091,4164 4377,3671 4663,3179 5075,2770 5571,2485 6067,2201 6629,2051 7202,2051 7775,2051 8337,2201 8833,2485 9329,2770 9741,3179 10027,3671 10313,4164 10464,4723 10464,5292 L 10464,5292 Z"/>
         <path fill="rgb(201,0,0)" stroke="none" d="M 10424,5292 C 10424,5853 10275,6405 9993,6892 9710,7379 9303,7783 8813,8064 8323,8345 7768,8493 7202,8493 6636,8493 6081,8345 5591,8064 5101,7783 4694,7379 4411,6892 4129,6405 3980,5853 3980,5292 3980,4730 4129,4178 4411,3691 4694,3204 5101,2800 5591,2519 6081,2238 6636,2090 7202,2090 7768,2090 8323,2238 8813,2519 9303,2800 9710,3204 9993,3691 10275,4178 10424,4730 10424,5292 L 10424,5292 Z"/>
         <path fill="rgb(203,0,0)" stroke="none" d="M 10385,5292 C 10385,5847 10238,6392 9958,6872 9679,7353 9277,7752 8793,8030 8309,8307 7761,8453 7202,8453 6643,8453 6094,8307 5611,8030 5127,7752 4725,7353 4446,6872 4166,6392 4019,5847 4019,5292 4019,4737 4166,4191 4446,3711 4725,3230 5127,2831 5611,2553 6094,2276 6643,2130 7202,2130 7761,2130 8309,2276 8793,2553 9277,2831 9679,3230 9958,3711 10238,4191 10385,4737 10385,5292 L 10385,5292 Z"/>
         <path fill="rgb(205,0,0)" stroke="none" d="M 10345,5292 C 10345,5840 10200,6378 9924,6853 9648,7327 9251,7722 8773,7996 8296,8270 7754,8414 7202,8414 6650,8414 6108,8270 5630,7996 5153,7722 4756,7327 4480,6853 4204,6378 4059,5840 4059,5292 4059,4743 4204,4205 4480,3730 4756,3256 5153,2862 5630,2588 6108,2313 6650,2169 7202,2169 7754,2169 8296,2313 8773,2588 9251,2862 9648,3256 9924,3730 10200,4205 10345,4743 10345,5292 L 10345,5292 Z"/>
         <path fill="rgb(207,0,0)" stroke="none" d="M 10305,5292 C 10305,5833 10162,6364 9890,6833 9617,7302 9225,7691 8754,7961 8282,8232 7747,8375 7202,8375 6657,8375 6122,8232 5650,7961 5179,7691 4787,7302 4514,6833 4242,6364 4099,5833 4099,5292 4099,4750 4242,4219 4514,3750 4787,3281 5179,2892 5650,2622 6122,2351 6657,2209 7202,2209 7747,2209 8282,2351 8754,2622 9225,2892 9617,3281 9890,3750 10162,4219 10305,4750 10305,5292 L 10305,5292 Z"/>
         <path fill="rgb(209,0,0)" stroke="none" d="M 10266,5292 C 10266,5826 10124,6351 9855,6813 9586,7276 9200,7660 8734,7927 8268,8195 7740,8335 7202,8335 6664,8335 6136,8195 5670,7927 5204,7660 4818,7276 4549,6813 4280,6351 4138,5826 4138,5292 4138,4757 4280,4232 4549,3770 4818,3307 5204,2923 5670,2656 6136,2389 6664,2248 7202,2248 7740,2248 8268,2389 8734,2656 9200,2923 9586,3307 9855,3770 10124,4232 10266,4757 10266,5292 L 10266,5292 Z"/>
         <path fill="rgb(212,0,0)" stroke="none" d="M 10226,5292 C 10226,5819 10086,6337 9821,6794 9555,7250 9174,7630 8714,7893 8254,8157 7733,8296 7202,8296 6671,8296 6150,8157 5690,7893 5230,7630 4848,7250 4583,6794 4318,6337 4178,5819 4178,5292 4178,4764 4318,4246 4583,3789 4848,3333 5230,2953 5690,2690 6150,2426 6671,2287 7202,2287 7733,2287 8254,2426 8714,2690 9174,2953 9555,3333 9821,3789 10086,4246 10226,4764 10226,5292 L 10226,5292 Z"/>
         <path fill="rgb(214,0,0)" stroke="none" d="M 10186,5292 C 10186,5812 10049,6323 9787,6774 9525,7225 9148,7599 8694,7859 8240,8119 7726,8256 7202,8256 6678,8256 6163,8119 5710,7859 5256,7599 4879,7225 4617,6774 4355,6323 4218,5812 4218,5292 4218,4771 4355,4260 4617,3809 4879,3358 5256,2984 5710,2724 6163,2464 6678,2327 7202,2327 7726,2327 8240,2464 8694,2724 9148,2984 9525,3358 9787,3809 10049,4260 10186,4771 10186,5292 L 10186,5292 Z"/>
         <path fill="rgb(216,0,0)" stroke="none" d="M 10147,5292 C 10147,5805 10011,6310 9752,6754 9494,7199 9122,7568 8674,7825 8227,8082 7719,8217 7202,8217 6685,8217 6177,8082 5730,7825 5282,7568 4910,7199 4652,6754 4393,6310 4257,5805 4257,5292 4257,4778 4393,4274 4652,3829 4910,3384 5282,3015 5730,2758 6177,2501 6685,2366 7202,2366 7719,2366 8227,2501 8674,2758 9122,3015 9494,3384 9752,3829 10011,4274 10147,4778 10147,5292 L 10147,5292 Z"/>
         <path fill="rgb(218,0,0)" stroke="none" d="M 10107,5292 C 10107,5798 9973,6296 9718,6735 9463,7173 9096,7538 8655,7791 8213,8044 7712,8178 7202,8178 6692,8178 6191,8044 5749,7791 5308,7538 4941,7173 4686,6735 4431,6296 4297,5798 4297,5292 4297,4785 4431,4287 4686,3849 4941,3410 5308,3045 5749,2792 6191,2539 6692,2405 7202,2405 7712,2405 8213,2539 8655,2792 9096,3045 9463,3410 9718,3849 9973,4287 10107,4785 10107,5292 L 10107,5292 Z"/>
         <path fill="rgb(220,0,0)" stroke="none" d="M 10067,5292 C 10067,5791 9935,6282 9684,6715 9432,7148 9070,7507 8635,7757 8199,8007 7705,8138 7202,8138 6699,8138 6205,8007 5769,7757 5334,7507 4972,7148 4720,6715 4469,6282 4336,5791 4336,5292 4336,4792 4469,4301 4720,3868 4972,3435 5334,3076 5769,2826 6205,2576 6699,2445 7202,2445 7705,2445 8199,2576 8635,2826 9070,3076 9432,3435 9684,3868 9935,4301 10067,4792 10067,5292 L 10067,5292 Z"/>
         <path fill="rgb(222,0,0)" stroke="none" d="M 10028,5292 C 10028,5784 9897,6268 9649,6695 9401,7122 9045,7476 8615,7723 8185,7969 7698,8099 7202,8099 6706,8099 6219,7969 5789,7723 5359,7476 5003,7122 4755,6695 4507,6268 4376,5784 4376,5292 4376,4799 4507,4315 4755,3888 5003,3461 5359,3107 5789,2860 6219,2614 6706,2484 7202,2484 7698,2484 8185,2614 8615,2860 9045,3107 9401,3461 9649,3888 9897,4315 10028,4799 10028,5292 L 10028,5292 Z"/>
         <path fill="rgb(225,0,0)" stroke="none" d="M 9988,5292 C 9988,5777 9859,6255 9615,6676 9370,7096 9019,7446 8595,7689 8172,7932 7691,8060 7202,8060 6713,8060 6232,7932 5809,7689 5385,7446 5034,7096 4789,6676 4544,6255 4416,5777 4416,5292 4416,4806 4544,4328 4789,3908 5034,3487 5385,3137 5809,2894 6232,2651 6713,2524 7202,2524 7691,2524 8172,2651 8595,2894 9019,3137 9370,3487 9615,3908 9859,4328 9988,4806 9988,5292 L 9988,5292 Z"/>
         <path fill="rgb(227,0,0)" stroke="none" d="M 9949,5292 C 9949,5771 9822,6241 9581,6656 9340,7071 8993,7415 8575,7655 8158,7894 7684,8020 7202,8020 6720,8020 6246,7894 5829,7655 5411,7415 5064,7071 4823,6656 4582,6241 4455,5771 4455,5292 4455,4813 4582,4342 4823,3927 5064,3512 5411,3168 5829,2929 6246,2689 6720,2563 7202,2563 7684,2563 8158,2689 8575,2929 8993,3168 9340,3512 9581,3927 9822,4342 9949,4813 9949,5292 L 9949,5292 Z"/>
         <path fill="rgb(229,0,0)" stroke="none" d="M 9909,5292 C 9909,5764 9784,6227 9546,6636 9309,7045 8967,7384 8555,7620 8144,7856 7677,7981 7202,7981 6727,7981 6260,7856 5848,7620 5437,7384 5095,7045 4858,6636 4620,6227 4495,5764 4495,5292 4495,4819 4620,4356 4858,3947 5095,3538 5437,3199 5848,2963 6260,2727 6727,2602 7202,2602 7677,2602 8144,2727 8555,2963 8967,3199 9309,3538 9546,3947 9784,4356 9909,4819 9909,5292 L 9909,5292 Z"/>
         <path fill="rgb(231,0,0)" stroke="none" d="M 9869,5292 C 9869,5757 9746,6214 9512,6616 9278,7019 8941,7354 8536,7586 8130,7819 7670,7941 7202,7941 6734,7941 6274,7819 5868,7586 5463,7354 5126,7019 4892,6616 4658,6214 4535,5757 4535,5292 4535,4826 4658,4369 4892,3967 5126,3564 5463,3229 5868,2997 6274,2764 6734,2642 7202,2642 7670,2642 8130,2764 8536,2997 8941,3229 9278,3564 9512,3967 9746,4369 9869,4826 9869,5292 L 9869,5292 Z"/>
         <path fill="rgb(233,0,0)" stroke="none" d="M 9830,5292 C 9830,5750 9708,6200 9478,6597 9247,6994 8915,7323 8516,7552 8116,7781 7663,7902 7202,7902 6741,7902 6288,7781 5888,7552 5489,7323 5157,6994 4926,6597 4696,6200 4574,5750 4574,5292 4574,4833 4696,4383 4926,3986 5157,3589 5489,3260 5888,3031 6288,2802 6741,2681 7202,2681 7663,2681 8116,2802 8516,3031 8915,3260 9247,3589 9478,3986 9708,4383 9830,4833 9830,5292 L 9830,5292 Z"/>
         <path fill="rgb(235,0,0)" stroke="none" d="M 9790,5292 C 9790,5743 9670,6186 9443,6577 9216,6968 8889,7293 8496,7518 8103,7744 7656,7863 7202,7863 6748,7863 6301,7744 5908,7518 5514,7293 5188,6968 4961,6577 4733,6186 4614,5743 4614,5292 4614,4840 4733,4397 4961,4006 5188,3615 5514,3291 5908,3065 6301,2839 6748,2720 7202,2720 7656,2720 8103,2839 8496,3065 8889,3291 9216,3615 9443,4006 9670,4397 9790,4840 9790,5292 L 9790,5292 Z"/>
         <path fill="rgb(238,0,0)" stroke="none" d="M 9750,5292 C 9750,5736 9633,6173 9409,6557 9185,6942 8864,7262 8476,7484 8089,7706 7649,7823 7202,7823 6755,7823 6315,7706 5928,7484 5540,7262 5219,6942 4995,6557 4771,6173 4654,5736 4654,5292 4654,4847 4771,4411 4995,4026 5219,3641 5540,3321 5928,3099 6315,2877 6755,2760 7202,2760 7649,2760 8089,2877 8476,3099 8864,3321 9185,3641 9409,4026 9633,4411 9750,4847 9750,5292 L 9750,5292 Z"/>
         <path fill="rgb(240,0,0)" stroke="none" d="M 9711,5292 C 9711,5729 9595,6159 9375,6538 9154,6917 8838,7231 8456,7450 8075,7669 7642,7784 7202,7784 6762,7784 6329,7669 5948,7450 5566,7231 5249,6917 5029,6538 4809,6159 4693,5729 4693,5292 4693,4854 4809,4424 5029,4045 5249,3667 5566,3352 5948,3133 6329,2914 6762,2799 7202,2799 7642,2799 8075,2914 8456,3133 8838,3352 9154,3667 9375,4045 9595,4424 9711,4854 9711,5292 L 9711,5292 Z"/>
         <path fill="rgb(242,0,0)" stroke="none" d="M 9671,5292 C 9671,5722 9557,6145 9340,6518 9124,6891 8812,7201 8437,7416 8061,7631 7635,7744 7202,7744 6769,7744 6343,7631 5967,7416 5592,7201 5280,6891 5064,6518 4847,6145 4733,5722 4733,5292 4733,4861 4847,4438 5064,4065 5280,3692 5592,3383 5967,3167 6343,2952 6769,2839 7202,2839 7635,2839 8061,2952 8437,3167 8812,3383 9124,3692 9340,4065 9557,4438 9671,4861 9671,5292 L 9671,5292 Z"/>
         <path fill="rgb(244,0,0)" stroke="none" d="M 9631,5292 C 9631,5715 9519,6131 9306,6498 9093,6865 8786,7170 8417,7382 8047,7594 7628,7705 7202,7705 6775,7705 6357,7594 5987,7382 5618,7170 5311,6865 5098,6498 4885,6131 4772,5715 4772,5292 4772,4868 4885,4452 5098,4085 5311,3718 5618,3413 5987,3201 6357,2990 6775,2878 7202,2878 7628,2878 8047,2990 8417,3201 8786,3413 9093,3718 9306,4085 9519,4452 9631,4868 9631,5292 L 9631,5292 Z"/>
         <path fill="rgb(246,0,0)" stroke="none" d="M 9592,5292 C 9592,5708 9481,6118 9272,6479 9062,6840 8760,7139 8397,7348 8034,7556 7621,7666 7202,7666 6782,7666 6370,7556 6007,7348 5644,7139 5342,6840 5132,6479 4923,6118 4812,5708 4812,5292 4812,4875 4923,4465 5132,4104 5342,3744 5644,3444 6007,3235 6370,3027 6782,2917 7202,2917 7621,2917 8034,3027 8397,3235 8760,3444 9062,3744 9272,4104 9481,4465 9592,4875 9592,5292 L 9592,5292 Z"/>
         <path fill="rgb(248,0,0)" stroke="none" d="M 9552,5292 C 9552,5701 9444,6104 9237,6459 9031,6814 8734,7109 8377,7314 8020,7518 7615,7626 7202,7626 6789,7626 6384,7518 6027,7314 5670,7109 5373,6814 5167,6459 4960,6104 4852,5701 4852,5292 4852,4882 4960,4479 5167,4124 5373,3769 5670,3474 6027,3270 6384,3065 6789,2957 7202,2957 7615,2957 8020,3065 8377,3270 8734,3474 9031,3769 9237,4124 9444,4479 9552,4882 9552,5292 L 9552,5292 Z"/>
         <path fill="rgb(251,0,0)" stroke="none" d="M 9513,5292 C 9513,5694 9406,6090 9203,6439 9000,6788 8709,7078 8357,7279 8006,7481 7608,7587 7202,7587 6796,7587 6398,7481 6047,7279 5695,7078 5404,6788 5201,6439 4998,6090 4891,5694 4891,5292 4891,4889 4998,4493 5201,4144 5404,3795 5695,3505 6047,3304 6398,3102 6796,2996 7202,2996 7608,2996 8006,3102 8357,3304 8709,3505 9000,3795 9203,4144 9406,4493 9513,4889 9513,5292 L 9513,5292 Z"/>
         <path fill="rgb(253,0,0)" stroke="none" d="M 9473,5292 C 9473,5688 9368,6077 9169,6420 8969,6763 8683,7047 8337,7245 7992,7443 7601,7548 7202,7548 6803,7548 6412,7443 6066,7245 5721,7047 5435,6763 5235,6420 5036,6077 4931,5688 4931,5292 4931,4896 5036,4506 5235,4164 5435,3821 5721,3536 6066,3338 6412,3140 6803,3035 7202,3035 7601,3035 7992,3140 8337,3338 8683,3536 8969,3821 9169,4164 9368,4506 9473,4896 9473,5292 L 9473,5292 Z"/>
         <path fill="rgb(255,0,0)" stroke="none" d="M 9433,5292 C 9433,5681 9330,6063 9134,6400 8939,6737 8657,7017 8318,7211 7978,7406 7594,7508 7202,7508 6810,7508 6426,7406 6086,7211 5747,7017 5465,6737 5270,6400 5074,6063 4971,5681 4971,5292 4971,4902 5074,4520 5270,4183 5465,3846 5747,3566 6086,3372 6426,3177 6810,3075 7202,3075 7594,3075 7978,3177 8318,3372 8657,3566 8939,3846 9134,4183 9330,4520 9433,4902 9433,5292 L 9433,5292 Z"/>
         <path fill="rgb(253,0,0)" stroke="none" d="M 9393,5292 C 9393,5674 9292,6049 9099,6380 8907,6711 8630,6985 8297,7176 7964,7367 7587,7468 7202,7468 6817,7468 6440,7367 6107,7176 5774,6985 5497,6711 5305,6380 5112,6049 5011,5674 5011,5292 5011,4910 5112,4534 5305,4203 5497,3873 5774,3598 6107,3407 6440,3216 6817,3115 7202,3115 7587,3115 7964,3216 8297,3407 8630,3598 8907,3873 9099,4203 9292,4534 9393,4910 9393,5292 L 9393,5292 Z"/>
         <path fill="rgb(251,0,0)" stroke="none" d="M 9352,5292 C 9352,5667 9253,6035 9064,6360 8875,6684 8604,6954 8277,7141 7950,7329 7579,7428 7202,7428 6825,7428 6454,7329 6127,7141 5800,6954 5529,6684 5340,6360 5151,6035 5052,5667 5052,5292 5052,4917 5151,4548 5340,4224 5529,3899 5800,3629 6127,3442 6454,3254 6825,3155 7202,3155 7579,3155 7950,3254 8277,3442 8604,3629 8875,3899 9064,4224 9253,4548 9352,4917 9352,5292 L 9352,5292 Z"/>
         <path fill="rgb(249,0,0)" stroke="none" d="M 9312,5292 C 9312,5659 9214,6021 9029,6339 8844,6658 8577,6923 8257,7107 7936,7290 7572,7387 7202,7387 6832,7387 6468,7290 6147,7107 5826,6923 5560,6658 5375,6339 5190,6021 5092,5659 5092,5292 5092,4924 5190,4562 5375,4244 5560,3925 5826,3660 6147,3477 6468,3293 6832,3196 7202,3196 7572,3196 7936,3293 8257,3477 8577,3660 8844,3925 9029,4244 9214,4562 9312,4924 9312,5292 L 9312,5292 Z"/>
         <path fill="rgb(247,0,0)" stroke="none" d="M 9271,5292 C 9271,5652 9175,6007 8994,6319 8812,6632 8551,6891 8236,7072 7922,7252 7565,7347 7202,7347 6839,7347 6482,7252 6167,7072 5853,6891 5592,6632 5410,6319 5229,6007 5133,5652 5133,5292 5133,4931 5229,4576 5410,4264 5592,3951 5853,3692 6167,3511 6482,3331 6839,3236 7202,3236 7565,3236 7922,3331 8236,3511 8551,3692 8812,3951 8994,4264 9175,4576 9271,4931 9271,5292 L 9271,5292 Z"/>
         <path fill="rgb(245,0,0)" stroke="none" d="M 9230,5292 C 9230,5645 9137,5993 8959,6299 8781,6605 8525,6860 8216,7037 7908,7214 7558,7307 7202,7307 6846,7307 6496,7214 6188,7037 5879,6860 5623,6605 5445,6299 5267,5993 5173,5645 5173,5292 5173,4938 5267,4590 5445,4284 5623,3978 5879,3723 6188,3546 6496,3369 6846,3276 7202,3276 7558,3276 7908,3369 8216,3546 8525,3723 8781,3978 8959,4284 9137,4590 9230,4938 9230,5292 L 9230,5292 Z"/>
         <path fill="rgb(242,0,0)" stroke="none" d="M 9190,5292 C 9190,5638 9098,5979 8924,6279 8749,6579 8498,6829 8196,7002 7894,7175 7551,7266 7202,7266 6853,7266 6510,7175 6208,7002 5906,6829 5655,6579 5480,6279 5306,5979 5214,5638 5214,5292 5214,4945 5306,4604 5480,4304 5655,4004 5906,3755 6208,3581 6510,3408 6853,3317 7202,3317 7551,3317 7894,3408 8196,3581 8498,3755 8749,4004 8924,4304 9098,4604 9190,4945 9190,5292 L 9190,5292 Z"/>
         <path fill="rgb(240,0,0)" stroke="none" d="M 9149,5292 C 9149,5631 9059,5965 8888,6259 8718,6553 8472,6797 8176,6967 7880,7137 7544,7226 7202,7226 6860,7226 6524,7137 6228,6967 5932,6797 5686,6553 5516,6259 5345,5965 5255,5631 5255,5292 5255,4952 5345,4618 5516,4324 5686,4030 5932,3786 6228,3616 6524,3446 6860,3357 7202,3357 7544,3357 7880,3446 8176,3616 8472,3786 8718,4030 8888,4324 9059,4618 9149,4952 9149,5292 L 9149,5292 Z"/>
         <path fill="rgb(238,0,0)" stroke="none" d="M 9109,5292 C 9109,5624 9021,5951 8853,6239 8686,6527 8445,6766 8155,6932 7865,7098 7537,7186 7202,7186 6867,7186 6538,7098 6249,6932 5959,6766 5718,6527 5551,6239 5383,5951 5295,5624 5295,5292 5295,4959 5383,4632 5551,4344 5718,4056 5959,3817 6249,3651 6538,3485 6867,3397 7202,3397 7537,3397 7865,3485 8155,3651 8445,3817 8686,4056 8853,4344 9021,4632 9109,4959 9109,5292 L 9109,5292 Z"/>
         <path fill="rgb(236,0,0)" stroke="none" d="M 9068,5292 C 9068,5617 8982,5937 8818,6219 8654,6500 8419,6734 8135,6897 7851,7060 7530,7146 7202,7146 6874,7146 6553,7060 6269,6897 5985,6734 5750,6500 5586,6219 5422,5937 5336,5617 5336,5292 5336,4966 5422,4646 5586,4365 5750,4083 5985,3849 6269,3686 6553,3523 6874,3438 7202,3438 7530,3438 7851,3523 8135,3686 8419,3849 8654,4083 8818,4365 8982,4646 9068,4966 9068,5292 L 9068,5292 Z"/>
         <path fill="rgb(234,0,0)" stroke="none" d="M 9028,5292 C 9028,5610 8943,5923 8783,6198 8623,6474 8392,6703 8115,6862 7837,7021 7522,7105 7202,7105 6881,7105 6567,7021 6289,6862 6012,6703 5781,6474 5621,6198 5461,5923 5376,5610 5376,5292 5376,4973 5461,4660 5621,4385 5781,4109 6012,3880 6289,3721 6567,3562 6881,3478 7202,3478 7522,3478 7837,3562 8115,3721 8392,3880 8623,4109 8783,4385 8943,4660 9028,4973 9028,5292 L 9028,5292 Z"/>
         <path fill="rgb(232,0,0)" stroke="none" d="M 8987,5292 C 8987,5603 8905,5909 8748,6178 8591,6448 8366,6672 8094,6827 7823,6983 7515,7065 7202,7065 6889,7065 6581,6983 6309,6827 6038,6672 5813,6448 5656,6178 5499,5909 5417,5603 5417,5292 5417,4980 5499,4674 5656,4405 5813,4135 6038,3911 6309,3756 6581,3600 6889,3518 7202,3518 7515,3518 7823,3600 8094,3756 8366,3911 8591,4135 8748,4405 8905,4674 8987,4980 8987,5292 L 8987,5292 Z"/>
         <path fill="rgb(230,0,0)" stroke="none" d="M 8946,5292 C 8946,5596 8866,5895 8713,6158 8560,6422 8339,6640 8074,6792 7809,6945 7508,7025 7202,7025 6896,7025 6595,6945 6330,6792 6065,6640 5844,6422 5691,6158 5538,5895 5457,5596 5457,5292 5457,4987 5538,4688 5691,4425 5844,4162 6065,3943 6330,3791 6595,3639 6896,3559 7202,3559 7508,3559 7809,3639 8074,3791 8339,3943 8560,4162 8713,4425 8866,4688 8946,4987 8946,5292 L 8946,5292 Z"/>
         <path fill="rgb(228,0,0)" stroke="none" d="M 8906,5292 C 8906,5589 8827,5881 8678,6138 8528,6395 8313,6609 8054,6758 7795,6906 7501,6984 7202,6984 6903,6984 6609,6906 6350,6758 6091,6609 5876,6395 5726,6138 5577,5881 5498,5589 5498,5292 5498,4994 5577,4703 5726,4445 5876,4188 6091,3974 6350,3826 6609,3677 6903,3599 7202,3599 7501,3599 7795,3677 8054,3826 8313,3974 8528,4188 8678,4445 8827,4703 8906,4994 8906,5292 L 8906,5292 Z"/>
         <path fill="rgb(226,0,0)" stroke="none" d="M 8865,5292 C 8865,5582 8788,5867 8642,6118 8496,6369 8287,6578 8034,6723 7781,6868 7494,6944 7202,6944 6910,6944 6623,6868 6370,6723 6117,6578 5907,6369 5761,6118 5615,5867 5539,5582 5539,5292 5539,5001 5615,4717 5761,4465 5907,4214 6117,4006 6370,3860 6623,3715 6910,3639 7202,3639 7494,3639 7781,3715 8034,3860 8287,4006 8496,4214 8642,4465 8788,4717 8865,5001 8865,5292 L 8865,5292 Z"/>
         <path fill="rgb(224,0,0)" stroke="none" d="M 8825,5292 C 8825,5575 8750,5853 8607,6098 8465,6343 8260,6546 8013,6688 7767,6829 7487,6904 7202,6904 6917,6904 6637,6829 6391,6688 6144,6546 5939,6343 5797,6098 5654,5853 5579,5575 5579,5292 5579,5009 5654,4731 5797,4485 5939,4240 6144,4037 6391,3895 6637,3754 6917,3679 7202,3679 7487,3679 7767,3754 8013,3895 8260,4037 8465,4240 8607,4485 8750,4731 8825,5009 8825,5292 L 8825,5292 Z"/>
         <path fill="rgb(221,0,0)" stroke="none" d="M 8784,5292 C 8784,5567 8711,5839 8572,6077 8433,6316 8234,6515 7993,6653 7753,6791 7480,6863 7202,6863 6924,6863 6651,6791 6411,6653 6170,6515 5971,6316 5832,6077 5693,5839 5620,5567 5620,5292 5620,5016 5693,4745 5832,4506 5971,4267 6170,4068 6411,3930 6651,3792 6924,3720 7202,3720 7480,3720 7753,3792 7993,3930 8234,4068 8433,4267 8572,4506 8711,4745 8784,5016 8784,5292 L 8784,5292 Z"/>
         <path fill="rgb(219,0,0)" stroke="none" d="M 8744,5292 C 8744,5560 8672,5824 8537,6057 8402,6290 8207,6483 7973,6618 7738,6752 7473,6823 7202,6823 6931,6823 6666,6752 6431,6618 6197,6483 6002,6290 5867,6057 5732,5824 5660,5560 5660,5292 5660,5023 5732,4759 5867,4526 6002,4293 6197,4100 6431,3965 6666,3831 6931,3760 7202,3760 7473,3760 7738,3831 7973,3965 8207,4100 8402,4293 8537,4526 8672,4759 8744,5023 8744,5292 L 8744,5292 Z"/>
         <path fill="rgb(217,0,0)" stroke="none" d="M 8703,5292 C 8703,5553 8634,5810 8502,6037 8370,6264 8181,6452 7953,6583 7724,6714 7465,6783 7202,6783 6938,6783 6680,6714 6451,6583 6223,6452 6034,6264 5902,6037 5770,5810 5701,5553 5701,5292 5701,5030 5770,4773 5902,4546 6034,4319 6223,4131 6451,4000 6680,3869 6938,3800 7202,3800 7465,3800 7724,3869 7953,4000 8181,4131 8370,4319 8502,4546 8634,4773 8703,5030 8703,5292 L 8703,5292 Z"/>
         <path fill="rgb(215,0,0)" stroke="none" d="M 8662,5292 C 8662,5546 8595,5796 8467,6017 8339,6238 8154,6421 7932,6548 7710,6675 7458,6742 7202,6742 6946,6742 6694,6675 6472,6548 6250,6421 6065,6238 5937,6017 5809,5796 5741,5546 5741,5292 5741,5037 5809,4787 5937,4566 6065,4346 6250,4162 6472,4035 6694,3908 6946,3841 7202,3841 7458,3841 7710,3908 7932,4035 8154,4162 8339,4346 8467,4566 8595,4787 8662,5037 8662,5292 L 8662,5292 Z"/>
         <path fill="rgb(213,0,0)" stroke="none" d="M 8622,5292 C 8622,5539 8556,5782 8432,5997 8307,6211 8128,6389 7912,6513 7696,6637 7451,6702 7202,6702 6953,6702 6708,6637 6492,6513 6276,6389 6097,6211 5972,5997 5848,5782 5782,5539 5782,5292 5782,5044 5848,4801 5972,4586 6097,4372 6276,4194 6492,4070 6708,3946 6953,3881 7202,3881 7451,3881 7696,3946 7912,4070 8128,4194 8307,4372 8432,4586 8556,4801 8622,5044 8622,5292 L 8622,5292 Z"/>
         <path fill="rgb(211,0,0)" stroke="none" d="M 8581,5292 C 8581,5532 8518,5768 8397,5977 8275,6185 8101,6358 7892,6478 7682,6599 7444,6662 7202,6662 6960,6662 6722,6599 6512,6478 6303,6358 6128,6185 6007,5977 5886,5768 5823,5532 5823,5292 5823,5051 5886,4815 6007,4606 6128,4398 6303,4225 6512,4105 6722,3985 6960,3921 7202,3921 7444,3921 7682,3985 7892,4105 8101,4225 8275,4398 8397,4606 8518,4815 8581,5051 8581,5292 L 8581,5292 Z"/>
         <path fill="rgb(209,0,0)" stroke="none" d="M 8541,5292 C 8541,5525 8479,5754 8361,5957 8244,6159 8075,6327 7871,6443 7668,6560 7437,6622 7202,6622 6967,6622 6736,6560 6533,6443 6329,6327 6160,6159 6043,5957 5925,5754 5863,5525 5863,5292 5863,5058 5925,4829 6043,4627 6160,4424 6329,4256 6533,4140 6736,4023 6967,3962 7202,3962 7437,3962 7668,4023 7871,4140 8075,4256 8244,4424 8361,4627 8479,4829 8541,5058 8541,5292 L 8541,5292 Z"/>
         <path fill="rgb(207,0,0)" stroke="none" d="M 8500,5292 C 8500,5518 8440,5740 8326,5936 8212,6132 8048,6295 7851,6408 7654,6522 7430,6581 7202,6581 6974,6581 6750,6522 6553,6408 6355,6295 6192,6132 6078,5936 5964,5740 5904,5518 5904,5292 5904,5065 5964,4843 6078,4647 6192,4451 6355,4288 6553,4175 6750,4061 6974,4002 7202,4002 7430,4002 7654,4061 7851,4175 8048,4288 8212,4451 8326,4647 8440,4843 8500,5065 8500,5292 L 8500,5292 Z"/>
         <path fill="rgb(205,0,0)" stroke="none" d="M 8460,5292 C 8460,5511 8402,5726 8291,5916 8181,6106 8022,6264 7831,6374 7640,6483 7423,6541 7202,6541 6981,6541 6764,6483 6573,6374 6382,6264 6223,6106 6113,5916 6002,5726 5944,5511 5944,5292 5944,5072 6002,4857 6113,4667 6223,4477 6382,4319 6573,4210 6764,4100 6981,4042 7202,4042 7423,4042 7640,4100 7831,4210 8022,4319 8181,4477 8291,4667 8402,4857 8460,5072 8460,5292 L 8460,5292 Z"/>
         <path fill="rgb(203,0,0)" stroke="none" d="M 8419,5292 C 8419,5504 8363,5712 8256,5896 8149,6080 7996,6233 7811,6339 7625,6445 7416,6501 7202,6501 6988,6501 6778,6445 6593,6339 6408,6233 6255,6080 6148,5896 6041,5712 5985,5504 5985,5292 5985,5079 6041,4871 6148,4687 6255,4503 6408,4351 6593,4244 6778,4138 6988,4082 7202,4082 7416,4082 7625,4138 7811,4244 7996,4351 8149,4503 8256,4687 8363,4871 8419,5079 8419,5292 L 8419,5292 Z"/>
         <path fill="rgb(200,0,0)" stroke="none" d="M 8378,5292 C 8378,5497 8324,5698 8221,5876 8118,6054 7969,6201 7790,6304 7611,6406 7408,6460 7202,6460 6995,6460 6793,6406 6614,6304 6435,6201 6286,6054 6183,5876 6080,5698 6025,5497 6025,5292 6025,5086 6080,4885 6183,4707 6286,4529 6435,4382 6614,4279 6793,4177 6995,4123 7202,4123 7408,4123 7611,4177 7790,4279 7969,4382 8118,4529 8221,4707 8324,4885 8378,5086 8378,5292 L 8378,5292 Z"/>
         <path fill="rgb(198,0,0)" stroke="none" d="M 8338,5292 C 8338,5490 8285,5684 8186,5856 8086,6027 7943,6170 7770,6269 7597,6368 7401,6420 7202,6420 7003,6420 6807,6368 6634,6269 6461,6170 6318,6027 6218,5856 6119,5684 6066,5490 6066,5292 6066,5093 6119,4899 6218,4727 6318,4556 6461,4413 6634,4314 6807,4215 7003,4163 7202,4163 7401,4163 7597,4215 7770,4314 7943,4413 8086,4556 8186,4727 8285,4899 8338,5093 8338,5292 L 8338,5292 Z"/>
         <path fill="rgb(196,0,0)" stroke="none" d="M 8297,5292 C 8297,5483 8247,5670 8151,5836 8054,6001 7916,6138 7750,6234 7583,6329 7394,6380 7202,6380 7010,6380 6821,6329 6654,6234 6488,6138 6349,6001 6253,5836 6157,5670 6107,5483 6107,5292 6107,5101 6157,4913 6253,4747 6349,4582 6488,4445 6654,4349 6821,4254 7010,4203 7202,4203 7394,4203 7583,4254 7750,4349 7916,4445 8054,4582 8151,4747 8247,4913 8297,5101 8297,5292 L 8297,5292 Z"/>
         <path fill="rgb(194,0,0)" stroke="none" d="M 8257,5292 C 8257,5475 8208,5656 8115,5815 8023,5975 7890,6107 7729,6199 7569,6291 7387,6339 7202,6339 7017,6339 6835,6291 6675,6199 6514,6107 6381,5975 6288,5815 6196,5656 6147,5475 6147,5292 6147,5108 6196,4927 6288,4768 6381,4608 6514,4476 6675,4384 6835,4292 7017,4244 7202,4244 7387,4244 7569,4292 7729,4384 7890,4476 8023,4608 8115,4768 8208,4927 8257,5108 8257,5292 L 8257,5292 Z"/>
         <path fill="rgb(192,0,0)" stroke="none" d="M 8216,5292 C 8216,5468 8169,5642 8080,5795 7991,5949 7863,6076 7709,6164 7555,6253 7380,6299 7202,6299 7024,6299 6849,6253 6695,6164 6541,6076 6413,5949 6324,5795 6235,5642 6188,5468 6188,5292 6188,5115 6235,4941 6324,4788 6413,4635 6541,4507 6695,4419 6849,4331 7024,4284 7202,4284 7380,4284 7555,4331 7709,4419 7863,4507 7991,4635 8080,4788 8169,4941 8216,5115 8216,5292 L 8216,5292 Z"/>
        </g>
        <g clip-path="url(#clip_path_1)">
         <path fill="none" stroke="rgb(0,0,0)" stroke-width="132" stroke-linejoin="miter" d="M 6382,7170 C 6604,7405 6740,7721 6740,8069 6740,8233 6710,8390 6655,8534 6840,8567 7031,8584 7225,8584 9042,8584 10517,7109 10517,5291 10517,3474 9041,1999 7224,1999 7037,1999 6854,2015 6675,2045 6731,2191 6763,2349 6763,2515 6763,2869 6621,3191 6392,3427 6758,3957 6972,4599 6972,5291 6972,5989 6754,6637 6382,7170 Z"/>
        </g>
        <defs>
         <clipPath id="clip_path_4" clipPathUnits="userSpaceOnUse">
          <path d="M 6373,2102 C 6515,2456 6456,2877 6219,3177 6005,2910 5752,2659 5481,2463 L 5500,2451 5508,2446 C 5780,2266 6058,2175 6373,2102 Z"/>
         </clipPath>
        </defs>
        <g clip-path="url(#clip_path_4)">
         <path fill="rgb(214,214,214)" stroke="none" d="M 6913,2533 C 6913,2691 6874,2847 6800,2984 6726,3121 6620,3235 6492,3315 6364,3394 6219,3435 6071,3435 5923,3435 5778,3394 5650,3315 5522,3235 5416,3121 5342,2984 5268,2847 5230,2691 5230,2533 5230,2375 5268,2219 5342,2082 5416,1945 5522,1831 5650,1751 5778,1672 5923,1630 6071,1630 6219,1630 6364,1672 6492,1751 6620,1831 6726,1945 6800,2082 6874,2219 6913,2375 6913,2533 L 6913,2533 Z"/>
         <path fill="rgb(214,214,214)" stroke="none" d="M 6626,2533 C 6626,2637 6601,2740 6552,2831 6503,2921 6433,2996 6349,3049 6264,3101 6169,3128 6071,3128 5974,3128 5878,3101 5794,3049 5709,2996 5639,2921 5590,2831 5542,2740 5516,2637 5516,2533 5516,2428 5542,2326 5590,2235 5639,2145 5709,2070 5794,2017 5878,1965 5974,1938 6071,1938 6169,1938 6264,1965 6349,2017 6433,2070 6503,2145 6552,2235 6601,2326 6626,2428 6626,2533 L 6626,2533 Z"/>
         <path fill="rgb(220,220,220)" stroke="none" d="M 6587,2533 C 6587,2630 6563,2725 6518,2809 6472,2893 6407,2963 6329,3012 6251,3060 6162,3086 6071,3086 5981,3086 5892,3060 5813,3012 5735,2963 5670,2893 5625,2809 5579,2725 5556,2630 5556,2533 5556,2436 5579,2341 5625,2257 5670,2173 5735,2103 5813,2054 5892,2006 5981,1980 6071,1980 6162,1980 6251,2006 6329,2054 6407,2103 6472,2173 6518,2257 6563,2341 6587,2436 6587,2533 L 6587,2533 Z"/>
         <path fill="rgb(226,226,226)" stroke="none" d="M 6547,2533 C 6547,2623 6525,2711 6483,2788 6442,2866 6381,2930 6309,2975 6237,3020 6155,3043 6071,3043 5988,3043 5906,3020 5833,2975 5761,2930 5701,2866 5659,2788 5617,2711 5595,2623 5595,2533 5595,2443 5617,2355 5659,2278 5701,2200 5761,2136 5833,2091 5906,2046 5988,2023 6071,2023 6155,2023 6237,2046 6309,2091 6381,2136 6442,2200 6483,2278 6525,2355 6547,2443 6547,2533 L 6547,2533 Z"/>
         <path fill="rgb(232,232,232)" stroke="none" d="M 6507,2533 C 6507,2615 6487,2696 6449,2767 6411,2838 6356,2897 6289,2938 6223,2979 6148,3001 6071,3001 5995,3001 5919,2979 5853,2938 5787,2897 5732,2838 5693,2767 5655,2696 5635,2615 5635,2533 5635,2451 5655,2370 5693,2299 5732,2228 5787,2169 5853,2128 5919,2087 5995,2065 6071,2065 6148,2065 6223,2087 6289,2128 6356,2169 6411,2228 6449,2299 6487,2370 6507,2451 6507,2533 L 6507,2533 Z"/>
         <path fill="rgb(237,237,237)" stroke="none" d="M 6468,2533 C 6468,2608 6449,2681 6415,2746 6380,2810 6330,2864 6269,2901 6209,2939 6141,2958 6071,2958 6002,2958 5933,2939 5873,2901 5813,2864 5763,2810 5728,2746 5693,2681 5675,2608 5675,2533 5675,2458 5693,2385 5728,2320 5763,2256 5813,2202 5873,2165 5933,2127 6002,2108 6071,2108 6141,2108 6209,2127 6269,2165 6330,2202 6380,2256 6415,2320 6449,2385 6468,2458 6468,2533 L 6468,2533 Z"/>
         <path fill="rgb(243,243,243)" stroke="none" d="M 6428,2533 C 6428,2600 6412,2666 6380,2724 6349,2783 6304,2831 6250,2864 6195,2898 6134,2916 6071,2916 6009,2916 5947,2898 5893,2864 5839,2831 5793,2783 5762,2724 5731,2666 5714,2600 5714,2533 5714,2466 5731,2400 5762,2342 5793,2283 5839,2235 5893,2202 5947,2168 6009,2150 6071,2150 6134,2150 6195,2168 6250,2202 6304,2235 6349,2283 6380,2342 6412,2400 6428,2466 6428,2533 L 6428,2533 Z"/>
         <path fill="rgb(249,249,249)" stroke="none" d="M 6388,2533 C 6388,2593 6374,2651 6346,2703 6318,2755 6278,2798 6230,2828 6182,2857 6127,2873 6071,2873 6016,2873 5961,2857 5913,2828 5864,2798 5824,2755 5796,2703 5769,2651 5754,2593 5754,2533 5754,2473 5769,2415 5796,2363 5824,2311 5864,2268 5913,2238 5961,2208 6016,2193 6071,2193 6127,2193 6182,2208 6230,2238 6278,2268 6318,2311 6346,2363 6374,2415 6388,2473 6388,2533 L 6388,2533 Z"/>
         <path fill="rgb(255,255,255)" stroke="none" d="M 6349,2533 C 6349,2585 6336,2637 6312,2682 6287,2727 6252,2765 6210,2791 6168,2817 6120,2831 6071,2831 6022,2831 5975,2817 5932,2791 5890,2765 5855,2727 5831,2682 5806,2637 5794,2585 5794,2533 5794,2481 5806,2429 5831,2384 5855,2339 5890,2301 5932,2275 5975,2249 6022,2235 6071,2235 6120,2235 6168,2249 6210,2275 6252,2301 6287,2339 6312,2384 6336,2429 6349,2481 6349,2533 L 6349,2533 Z"/>
        </g>
        <g clip-path="url(#clip_path_1)">
         <path fill="none" stroke="rgb(0,0,0)" stroke-width="116" stroke-linejoin="miter" d="M 5508,2446 C 5780,2266 6058,2175 6373,2102 6515,2456 6456,2877 6219,3177 6005,2910 5752,2659 5481,2463 L 5500,2451 5508,2446 5508,2446 Z"/>
        </g>
        <defs>
         <clipPath id="clip_path_5" clipPathUnits="userSpaceOnUse">
          <path d="M 7853,7706 C 8973,7360 9819,6165 9612,4977 9484,4020 8773,3134 7838,2866 L 7848,2887 C 8529,4391 8544,6200 7853,7706 Z"/>
         </clipPath>
        </defs>
        <g clip-path="url(#clip_path_5)">
         <path fill="rgb(214,214,214)" stroke="none" d="M 10414,5286 C 10414,5954 10258,6610 9962,7188 9665,7767 9239,8247 8725,8581 8212,8915 7629,9091 7036,9091 6443,9091 5861,8915 5347,8581 4834,8247 4407,7767 4111,7188 3814,6610 3658,5954 3658,5286 3658,4618 3814,3962 4111,3383 4407,2805 4834,2325 5347,1991 5861,1657 6443,1481 7036,1481 7629,1481 8212,1657 8725,1991 9239,2325 9665,2805 9962,3383 10258,3962 10414,4618 10414,5286 L 10414,5286 Z"/>
         <path fill="rgb(214,214,214)" stroke="none" d="M 9680,5286 C 9680,5809 9558,6322 9326,6775 9094,7227 8760,7603 8358,7865 7956,8126 7500,8264 7036,8264 6572,8264 6116,8126 5714,7865 5312,7603 4979,7227 4747,6775 4515,6322 4392,5809 4392,5286 4392,4763 4515,4250 4747,3797 4979,3344 5312,2968 5714,2707 6116,2446 6572,2308 7036,2308 7500,2308 7956,2446 8358,2707 8760,2968 9094,3344 9326,3797 9558,4250 9680,4763 9680,5286 L 9680,5286 Z"/>
         <path fill="rgb(216,216,216)" stroke="none" d="M 9645,5286 C 9645,5802 9525,6308 9296,6755 9067,7202 8737,7573 8341,7831 7944,8089 7494,8224 7036,8224 6578,8224 6128,8089 5732,7831 5335,7573 5006,7202 4777,6755 4548,6308 4427,5802 4427,5286 4427,4770 4548,4263 4777,3817 5006,3370 5335,2999 5732,2741 6128,2483 6578,2347 7036,2347 7494,2347 7944,2483 8341,2741 8737,2999 9067,3370 9296,3817 9525,4263 9645,4770 9645,5286 L 9645,5286 Z"/>
         <path fill="rgb(219,219,219)" stroke="none" d="M 9610,5286 C 9610,5795 9491,6295 9266,6736 9040,7176 8715,7542 8323,7797 7932,8051 7488,8185 7036,8185 6584,8185 6140,8051 5749,7797 5358,7542 5033,7176 4807,6736 4581,6295 4462,5795 4462,5286 4462,4777 4581,4277 4807,3836 5033,3395 5358,3029 5749,2775 6140,2520 6584,2386 7036,2386 7488,2386 7932,2520 8323,2775 8715,3029 9040,3395 9266,3836 9491,4277 9610,4777 9610,5286 L 9610,5286 Z"/>
         <path fill="rgb(221,221,221)" stroke="none" d="M 9576,5286 C 9576,5788 9458,6281 9235,6716 9013,7151 8692,7512 8306,7763 7920,8014 7482,8146 7036,8146 6590,8146 6153,8014 5766,7763 5380,7512 5060,7151 4837,6716 4614,6281 4497,5788 4497,5286 4497,4784 4614,4291 4837,3856 5060,3421 5380,3060 5766,2809 6153,2558 6590,2426 7036,2426 7482,2426 7920,2558 8306,2809 8692,3060 9013,3421 9235,3856 9458,4291 9576,4784 9576,5286 L 9576,5286 Z"/>
         <path fill="rgb(223,223,223)" stroke="none" d="M 9541,5286 C 9541,5781 9425,6268 9205,6696 8986,7125 8669,7481 8289,7729 7908,7977 7476,8107 7036,8107 6597,8107 6165,7977 5784,7729 5403,7481 5087,7125 4867,6696 4647,6268 4532,5781 4532,5286 4532,4791 4647,4304 4867,3875 5087,3446 5403,3090 5784,2843 6165,2595 6597,2465 7036,2465 7476,2465 7908,2595 8289,2843 8669,3090 8986,3446 9205,3875 9425,4304 9541,4791 9541,5286 L 9541,5286 Z"/>
         <path fill="rgb(225,225,225)" stroke="none" d="M 9506,5286 C 9506,5774 9392,6254 9175,6677 8958,7100 8647,7451 8271,7695 7896,7939 7470,8068 7036,8068 6603,8068 6177,7939 5801,7695 5426,7451 5114,7100 4897,6677 4680,6254 4566,5774 4566,5286 4566,4798 4680,4318 4897,3895 5114,3472 5426,3121 5801,2877 6177,2632 6603,2504 7036,2504 7470,2504 7896,2632 8271,2877 8647,3121 8958,3472 9175,3895 9392,4318 9506,4798 9506,5286 L 9506,5286 Z"/>
         <path fill="rgb(228,228,228)" stroke="none" d="M 9471,5286 C 9471,5767 9359,6240 9145,6657 8931,7074 8624,7421 8254,7661 7884,7902 7464,8029 7036,8029 6609,8029 6189,7902 5819,7661 5448,7421 5141,7074 4927,6657 4714,6240 4601,5767 4601,5286 4601,4804 4714,4331 4927,3914 5141,3497 5448,3151 5819,2910 6189,2670 6609,2543 7036,2543 7464,2543 7884,2670 8254,2910 8624,3151 8931,3497 9145,3914 9359,4331 9471,4804 9471,5286 L 9471,5286 Z"/>
         <path fill="rgb(230,230,230)" stroke="none" d="M 9437,5286 C 9437,5760 9326,6227 9115,6638 8904,7049 8601,7390 8236,7627 7872,7865 7458,7990 7036,7990 6615,7990 6201,7865 5836,7627 5471,7390 5168,7049 4957,6638 4747,6227 4636,5760 4636,5286 4636,4811 4747,4345 4957,3934 5168,3523 5471,3182 5836,2944 6201,2707 6615,2582 7036,2582 7458,2582 7872,2707 8236,2944 8601,3182 8904,3523 9115,3934 9326,4345 9437,4811 9437,5286 L 9437,5286 Z"/>
         <path fill="rgb(232,232,232)" stroke="none" d="M 9402,5286 C 9402,5754 9293,6213 9085,6618 8877,7023 8579,7360 8219,7593 7859,7827 7451,7950 7036,7950 6621,7950 6213,7827 5853,7593 5494,7360 5195,7023 4987,6618 4780,6213 4671,5754 4671,5286 4671,4818 4780,4359 4987,3954 5195,3548 5494,3212 5853,2978 6213,2744 6621,2621 7036,2621 7451,2621 7859,2744 8219,2978 8579,3212 8877,3548 9085,3954 9293,4359 9402,4818 9402,5286 L 9402,5286 Z"/>
         <path fill="rgb(235,235,235)" stroke="none" d="M 9367,5286 C 9367,5747 9259,6199 9055,6599 8850,6998 8556,7329 8202,7560 7847,7790 7445,7911 7036,7911 6627,7911 6225,7790 5871,7560 5516,7329 5222,6998 5018,6599 4813,6199 4705,5747 4705,5286 4705,4825 4813,4372 5018,3973 5222,3574 5516,3243 5871,3012 6225,2782 6627,2660 7036,2660 7445,2660 7847,2782 8202,3012 8556,3243 8850,3574 9055,3973 9259,4372 9367,4825 9367,5286 L 9367,5286 Z"/>
         <path fill="rgb(237,237,237)" stroke="none" d="M 9332,5286 C 9332,5740 9226,6186 9025,6579 8823,6972 8533,7299 8184,7526 7835,7753 7439,7872 7036,7872 6633,7872 6237,7753 5888,7526 5539,7299 5249,6972 5048,6579 4846,6186 4740,5740 4740,5286 4740,4832 4846,4386 5048,3993 5249,3600 5539,3273 5888,3046 6237,2819 6633,2700 7036,2700 7439,2700 7835,2819 8184,3046 8533,3273 8823,3600 9025,3993 9226,4386 9332,4832 9332,5286 L 9332,5286 Z"/>
         <path fill="rgb(239,239,239)" stroke="none" d="M 9298,5286 C 9298,5733 9193,6172 8995,6559 8796,6947 8511,7268 8167,7492 7823,7715 7433,7833 7036,7833 6639,7833 6249,7715 5906,7492 5562,7268 5276,6947 5078,6559 4879,6172 4775,5733 4775,5286 4775,4839 4879,4400 5078,4012 5276,3625 5562,3304 5906,3080 6249,2856 6639,2739 7036,2739 7433,2739 7823,2856 8167,3080 8511,3304 8796,3625 8995,4012 9193,4400 9298,4839 9298,5286 L 9298,5286 Z"/>
         <path fill="rgb(241,241,241)" stroke="none" d="M 9263,5286 C 9263,5726 9160,6159 8965,6540 8769,6921 8488,7238 8150,7458 7811,7678 7427,7794 7036,7794 6645,7794 6261,7678 5923,7458 5584,7238 5303,6921 5108,6540 4912,6159 4810,5726 4810,5286 4810,4846 4912,4413 5108,4032 5303,3651 5584,3334 5923,3114 6261,2894 6645,2778 7036,2778 7427,2778 7811,2894 8150,3114 8488,3334 8769,3651 8965,4032 9160,4413 9263,4846 9263,5286 L 9263,5286 Z"/>
         <path fill="rgb(244,244,244)" stroke="none" d="M 9228,5286 C 9228,5719 9127,6145 8934,6520 8742,6896 8465,7207 8132,7424 7799,7641 7421,7755 7036,7755 6651,7755 6273,7641 5940,7424 5607,7207 5330,6896 5138,6520 4946,6145 4844,5719 4844,5286 4844,4852 4946,4427 5138,4051 5330,3676 5607,3364 5940,3148 6273,2931 6651,2817 7036,2817 7421,2817 7799,2931 8132,3148 8465,3364 8742,3676 8934,4051 9127,4427 9228,4852 9228,5286 L 9228,5286 Z"/>
         <path fill="rgb(246,246,246)" stroke="none" d="M 9193,5286 C 9193,5712 9094,6131 8904,6501 8715,6870 8443,7177 8115,7390 7787,7603 7415,7716 7036,7716 6658,7716 6286,7603 5958,7390 5630,7177 5357,6870 5168,6501 4979,6131 4879,5712 4879,5286 4879,4859 4979,4440 5168,4071 5357,3702 5630,3395 5958,3182 6286,2968 6658,2856 7036,2856 7415,2856 7787,2968 8115,3182 8443,3395 8715,3702 8904,4071 9094,4440 9193,4859 9193,5286 L 9193,5286 Z"/>
         <path fill="rgb(248,248,248)" stroke="none" d="M 9159,5286 C 9159,5705 9061,6118 8874,6481 8688,6845 8420,7146 8097,7356 7775,7566 7409,7676 7036,7676 6664,7676 6298,7566 5975,7356 5652,7146 5384,6845 5198,6481 5012,6118 4914,5705 4914,5286 4914,4866 5012,4454 5198,4091 5384,3727 5652,3425 5975,3216 6298,3006 6664,2895 7036,2895 7409,2895 7775,3006 8097,3216 8420,3425 8688,3727 8874,4091 9061,4454 9159,4866 9159,5286 L 9159,5286 Z"/>
         <path fill="rgb(250,250,250)" stroke="none" d="M 9124,5286 C 9124,5699 9027,6104 8844,6462 8661,6819 8397,7116 8080,7322 7763,7529 7403,7637 7036,7637 6670,7637 6310,7529 5992,7322 5675,7116 5412,6819 5228,6462 5045,6104 4949,5699 4949,5286 4949,4873 5045,4468 5228,4110 5412,3753 5675,3456 5992,3250 6310,3043 6670,2934 7036,2934 7403,2934 7763,3043 8080,3250 8397,3456 8661,3753 8844,4110 9027,4468 9124,4873 9124,5286 L 9124,5286 Z"/>
         <path fill="rgb(253,253,253)" stroke="none" d="M 9089,5286 C 9089,5692 8994,6090 8814,6442 8634,6793 8375,7085 8063,7288 7751,7491 7397,7598 7036,7598 6676,7598 6322,7491 6010,7288 5698,7085 5439,6793 5258,6442 5078,6090 4983,5692 4983,5286 4983,4880 5078,4481 5258,4130 5439,3778 5698,3486 6010,3283 6322,3080 6676,2974 7036,2974 7397,2974 7751,3080 8063,3283 8375,3486 8634,3778 8814,4130 8994,4481 9089,4880 9089,5286 L 9089,5286 Z"/>
         <path fill="rgb(255,255,255)" stroke="none" d="M 9054,5286 C 9054,5685 8961,6077 8784,6422 8607,6768 8352,7055 8045,7254 7738,7454 7390,7559 7036,7559 6682,7559 6334,7454 6027,7254 5720,7055 5466,6768 5289,6422 5111,6077 5018,5685 5018,5286 5018,4887 5111,4495 5289,4149 5466,3804 5720,3517 6027,3317 6334,3118 6682,3013 7036,3013 7390,3013 7738,3118 8045,3317 8352,3517 8607,3804 8784,4149 8961,4495 9054,4887 9054,5286 L 9054,5286 Z"/>
        </g>
        <g clip-path="url(#clip_path_1)">
         <path fill="none" stroke="rgb(0,0,0)" stroke-width="165" stroke-linejoin="miter" stroke-linecap="round" d="M 7848,2887 C 8529,4391 8544,6200 7853,7706 8973,7360 9819,6165 9612,4977 9484,4020 8773,3134 7838,2866 L 7848,2887 7848,2887 Z"/>
        </g>
        <defs>
         <clipPath id="clip_path_6" clipPathUnits="userSpaceOnUse">
          <path d="M 7856,4993 L 7541,4993 6806,3719 7746,3719 7856,4993 7856,4993 Z"/>
         </clipPath>
        </defs>
        <g clip-path="url(#clip_path_6)">
         <path fill="rgb(214,214,214)" stroke="none" d="M 8289,4279 C 8289,4458 8249,4635 8173,4790 8097,4946 7988,5075 7857,5165 7725,5255 7576,5302 7425,5302 7273,5302 7124,5255 6993,5165 6861,5075 6752,4946 6676,4790 6601,4635 6561,4458 6561,4279 6561,4099 6601,3923 6676,3767 6752,3612 6861,3483 6993,3393 7124,3303 7273,3256 7425,3256 7576,3256 7725,3303 7857,3393 7988,3483 8097,3612 8173,3767 8249,3923 8289,4099 8289,4279 L 8289,4279 Z"/>
         <path fill="rgb(214,214,214)" stroke="none" d="M 8032,4279 C 8032,4405 8004,4529 7951,4639 7897,4748 7821,4839 7728,4902 7636,4965 7531,4998 7425,4998 7318,4998 7213,4965 7121,4902 7028,4839 6952,4748 6898,4639 6845,4529 6817,4405 6817,4279 6817,4153 6845,4029 6898,3919 6952,3810 7028,3719 7121,3656 7213,3593 7318,3559 7425,3559 7531,3559 7636,3593 7728,3656 7821,3719 7897,3810 7951,3919 8004,4029 8032,4153 8032,4279 L 8032,4279 Z"/>
         <path fill="rgb(219,219,219)" stroke="none" d="M 7998,4279 C 7998,4398 7972,4515 7921,4619 7871,4722 7799,4808 7711,4867 7624,4927 7525,4958 7425,4958 7324,4958 7225,4927 7138,4867 7050,4808 6978,4722 6928,4619 6877,4515 6851,4398 6851,4279 6851,4160 6877,4042 6928,3939 6978,3836 7050,3750 7138,3690 7225,3631 7324,3599 7425,3599 7525,3599 7624,3631 7711,3690 7799,3750 7871,3836 7921,3939 7972,4042 7998,4160 7998,4279 L 7998,4279 Z"/>
         <path fill="rgb(223,223,223)" stroke="none" d="M 7965,4279 C 7965,4391 7940,4501 7892,4599 7845,4696 7777,4777 7695,4833 7613,4889 7519,4918 7425,4918 7330,4918 7237,4889 7155,4833 7072,4777 7004,4696 6957,4599 6910,4501 6885,4391 6885,4279 6885,4167 6910,4056 6957,3959 7004,3862 7072,3781 7155,3725 7237,3669 7330,3639 7425,3639 7519,3639 7613,3669 7695,3725 7777,3781 7845,3862 7892,3959 7940,4056 7965,4167 7965,4279 L 7965,4279 Z"/>
         <path fill="rgb(228,228,228)" stroke="none" d="M 7931,4279 C 7931,4384 7907,4488 7863,4579 7819,4670 7755,4745 7678,4798 7601,4851 7513,4878 7425,4878 7336,4878 7248,4851 7171,4798 7095,4745 7031,4670 6986,4579 6942,4488 6918,4384 6918,4279 6918,4174 6942,4070 6986,3979 7031,3888 7095,3812 7171,3760 7248,3707 7336,3679 7425,3679 7513,3679 7601,3707 7678,3760 7755,3812 7819,3888 7863,3979 7907,4070 7931,4174 7931,4279 L 7931,4279 Z"/>
         <path fill="rgb(232,232,232)" stroke="none" d="M 7897,4279 C 7897,4377 7875,4474 7834,4559 7792,4644 7733,4714 7661,4763 7589,4813 7508,4838 7425,4838 7342,4838 7260,4813 7188,4763 7117,4714 7057,4644 7015,4559 6974,4474 6952,4377 6952,4279 6952,4181 6974,4084 7015,3999 7057,3914 7117,3843 7188,3794 7260,3745 7342,3719 7425,3719 7508,3719 7589,3745 7661,3794 7733,3843 7792,3914 7834,3999 7875,4084 7897,4181 7897,4279 L 7897,4279 Z"/>
         <path fill="rgb(237,237,237)" stroke="none" d="M 7863,4279 C 7863,4370 7843,4460 7805,4539 7766,4618 7711,4683 7644,4729 7577,4774 7502,4798 7425,4798 7348,4798 7272,4774 7205,4729 7139,4683 7083,4618 7045,4539 7006,4460 6986,4370 6986,4279 6986,4188 7006,4098 7045,4019 7083,3940 7139,3875 7205,3829 7272,3783 7348,3759 7425,3759 7502,3759 7577,3783 7644,3829 7711,3875 7766,3940 7805,4019 7843,4098 7863,4188 7863,4279 L 7863,4279 Z"/>
         <path fill="rgb(241,241,241)" stroke="none" d="M 7830,4279 C 7830,4363 7811,4446 7775,4519 7740,4592 7689,4652 7627,4694 7566,4736 7496,4758 7425,4758 7354,4758 7284,4736 7222,4694 7161,4652 7109,4592 7074,4519 7038,4446 7020,4363 7020,4279 7020,4195 7038,4112 7074,4039 7109,3966 7161,3906 7222,3864 7284,3821 7354,3799 7425,3799 7496,3799 7566,3821 7627,3864 7689,3906 7740,3966 7775,4039 7811,4112 7830,4195 7830,4279 L 7830,4279 Z"/>
         <path fill="rgb(246,246,246)" stroke="none" d="M 7796,4279 C 7796,4356 7779,4432 7746,4499 7714,4566 7667,4621 7610,4660 7554,4698 7490,4719 7425,4719 7359,4719 7295,4698 7239,4660 7183,4621 7136,4566 7103,4499 7070,4432 7053,4356 7053,4279 7053,4202 7070,4126 7103,4059 7136,3992 7183,3937 7239,3898 7295,3860 7359,3839 7425,3839 7490,3839 7554,3860 7610,3898 7667,3937 7714,3992 7746,4059 7779,4126 7796,4202 7796,4279 L 7796,4279 Z"/>
         <path fill="rgb(250,250,250)" stroke="none" d="M 7762,4279 C 7762,4349 7747,4418 7717,4479 7687,4539 7645,4590 7593,4625 7542,4660 7484,4679 7425,4679 7365,4679 7307,4660 7256,4625 7205,4590 7162,4539 7132,4479 7103,4418 7087,4349 7087,4279 7087,4209 7103,4140 7132,4079 7162,4018 7205,3968 7256,3933 7307,3898 7365,3879 7425,3879 7484,3879 7542,3898 7593,3933 7645,3968 7687,4018 7717,4079 7747,4140 7762,4209 7762,4279 L 7762,4279 Z"/>
         <path fill="rgb(255,255,255)" stroke="none" d="M 7728,4279 C 7728,4342 7714,4404 7688,4459 7661,4513 7623,4559 7576,4590 7530,4622 7478,4639 7425,4639 7371,4639 7319,4622 7273,4590 7227,4559 7188,4513 7162,4459 7135,4404 7121,4342 7121,4279 7121,4216 7135,4154 7162,4099 7188,4044 7227,3999 7273,3967 7319,3936 7371,3919 7425,3919 7478,3919 7530,3936 7576,3967 7623,3999 7661,4044 7688,4099 7714,4154 7728,4216 7728,4279 L 7728,4279 Z"/>
        </g>
        <g clip-path="url(#clip_path_1)">
         <path fill="none" stroke="rgb(0,0,0)" stroke-width="165" stroke-linejoin="miter" d="M 7856,4993 L 7541,4993 6806,3719 7746,3719 7856,4993 7856,4993 Z"/>
         <path fill="none" stroke="rgb(0,0,0)" stroke-width="165" stroke-linejoin="miter" d="M 7678,4853 L 7425,4279"/>
         <path fill="none" stroke="rgb(0,0,0)" stroke-width="165" stroke-linejoin="miter" stroke-linecap="round" d="M 7871,7684 C 9465,6295 9471,4421 7880,2888"/>
         <path fill="none" stroke="rgb(0,0,0)" stroke-width="165" stroke-linejoin="miter" stroke-linecap="round" d="M 8353,5308 L 9627,5308"/>
         <path fill="none" stroke="rgb(0,0,0)" stroke-width="165" stroke-linejoin="miter" stroke-linecap="round" d="M 8316,4523 L 9503,4523"/>
         <path fill="none" stroke="rgb(0,0,0)" stroke-width="165" stroke-linejoin="miter" stroke-linecap="round" d="M 8214,3976 L 9252,3976"/>
         <path fill="none" stroke="rgb(0,0,0)" stroke-width="165" stroke-linejoin="miter" stroke-linecap="round" d="M 8120,3524 L 8863,3524"/>
        </g>
        <defs>
         <clipPath id="clip_path_7" clipPathUnits="userSpaceOnUse">
          <path d="M 7856,5633 L 7541,5633 6806,6907 7746,6907 7856,5633 7856,5633 Z"/>
         </clipPath>
        </defs>
        <g clip-path="url(#clip_path_7)">
         <path fill="rgb(214,214,214)" stroke="none" d="M 8289,6347 C 8289,6527 8249,6703 8173,6858 8097,7014 7988,7143 7857,7233 7725,7323 7576,7370 7425,7370 7273,7370 7124,7323 6993,7233 6861,7143 6752,7014 6676,6858 6601,6703 6561,6527 6561,6347 6561,6167 6601,5991 6676,5835 6752,5680 6861,5551 6993,5461 7124,5371 7273,5324 7425,5324 7576,5324 7725,5371 7857,5461 7988,5551 8097,5680 8173,5835 8249,5991 8289,6167 8289,6347 L 8289,6347 Z"/>
         <path fill="rgb(214,214,214)" stroke="none" d="M 8032,6347 C 8032,6473 8004,6597 7951,6707 7897,6816 7821,6907 7728,6970 7636,7033 7531,7066 7425,7066 7318,7066 7213,7033 7121,6970 7028,6907 6952,6816 6898,6707 6845,6597 6817,6473 6817,6347 6817,6221 6845,6097 6898,5987 6952,5878 7028,5787 7121,5724 7213,5661 7318,5627 7425,5627 7531,5627 7636,5661 7728,5724 7821,5787 7897,5878 7951,5987 8004,6097 8032,6221 8032,6347 L 8032,6347 Z"/>
         <path fill="rgb(219,219,219)" stroke="none" d="M 7998,6347 C 7998,6466 7972,6583 7921,6687 7871,6790 7799,6876 7711,6935 7624,6995 7525,7026 7425,7026 7324,7026 7225,6995 7138,6935 7050,6876 6978,6790 6928,6687 6877,6583 6851,6466 6851,6347 6851,6228 6877,6110 6928,6007 6978,5904 7050,5818 7138,5758 7225,5699 7324,5667 7425,5667 7525,5667 7624,5699 7711,5758 7799,5818 7871,5904 7921,6007 7972,6110 7998,6228 7998,6347 L 7998,6347 Z"/>
         <path fill="rgb(223,223,223)" stroke="none" d="M 7965,6347 C 7965,6459 7940,6569 7892,6667 7845,6764 7777,6845 7695,6901 7613,6957 7519,6986 7425,6986 7330,6986 7237,6957 7155,6901 7072,6845 7004,6764 6957,6667 6910,6569 6885,6459 6885,6347 6885,6235 6910,6124 6957,6027 7004,5930 7072,5849 7155,5793 7237,5737 7330,5707 7425,5707 7519,5707 7613,5737 7695,5793 7777,5849 7845,5930 7892,6027 7940,6124 7965,6235 7965,6347 L 7965,6347 Z"/>
         <path fill="rgb(228,228,228)" stroke="none" d="M 7931,6347 C 7931,6452 7907,6556 7863,6647 7819,6738 7755,6813 7678,6866 7601,6919 7513,6946 7425,6946 7336,6946 7248,6919 7171,6866 7095,6813 7031,6738 6986,6647 6942,6556 6918,6452 6918,6347 6918,6242 6942,6138 6986,6047 7031,5956 7095,5880 7171,5828 7248,5775 7336,5747 7425,5747 7513,5747 7601,5775 7678,5828 7755,5880 7819,5956 7863,6047 7907,6138 7931,6242 7931,6347 L 7931,6347 Z"/>
         <path fill="rgb(232,232,232)" stroke="none" d="M 7897,6347 C 7897,6445 7875,6542 7834,6627 7792,6712 7733,6782 7661,6831 7589,6881 7508,6906 7425,6906 7342,6906 7260,6881 7188,6831 7117,6782 7057,6712 7015,6627 6974,6542 6952,6445 6952,6347 6952,6249 6974,6152 7015,6067 7057,5982 7117,5911 7188,5862 7260,5813 7342,5787 7425,5787 7508,5787 7589,5813 7661,5862 7733,5911 7792,5982 7834,6067 7875,6152 7897,6249 7897,6347 L 7897,6347 Z"/>
         <path fill="rgb(237,237,237)" stroke="none" d="M 7863,6347 C 7863,6438 7843,6528 7805,6607 7766,6686 7711,6751 7644,6797 7577,6842 7502,6866 7425,6866 7348,6866 7272,6842 7205,6797 7139,6751 7083,6686 7045,6607 7006,6528 6986,6438 6986,6347 6986,6256 7006,6166 7045,6087 7083,6008 7139,5943 7205,5897 7272,5851 7348,5827 7425,5827 7502,5827 7577,5851 7644,5897 7711,5943 7766,6008 7805,6087 7843,6166 7863,6256 7863,6347 L 7863,6347 Z"/>
         <path fill="rgb(241,241,241)" stroke="none" d="M 7830,6347 C 7830,6431 7811,6514 7775,6587 7740,6660 7689,6720 7627,6762 7566,6804 7496,6827 7425,6827 7354,6827 7284,6804 7222,6762 7161,6720 7109,6660 7074,6587 7038,6514 7020,6431 7020,6347 7020,6263 7038,6180 7074,6107 7109,6034 7161,5974 7222,5932 7284,5889 7354,5867 7425,5867 7496,5867 7566,5889 7627,5932 7689,5974 7740,6034 7775,6107 7811,6180 7830,6263 7830,6347 L 7830,6347 Z"/>
         <path fill="rgb(246,246,246)" stroke="none" d="M 7796,6347 C 7796,6424 7779,6500 7746,6567 7714,6634 7667,6689 7610,6728 7554,6766 7490,6787 7425,6787 7359,6787 7295,6766 7239,6728 7183,6689 7136,6634 7103,6567 7070,6500 7053,6424 7053,6347 7053,6270 7070,6194 7103,6127 7136,6060 7183,6005 7239,5966 7295,5928 7359,5907 7425,5907 7490,5907 7554,5928 7610,5966 7667,6005 7714,6060 7746,6127 7779,6194 7796,6270 7796,6347 L 7796,6347 Z"/>
         <path fill="rgb(250,250,250)" stroke="none" d="M 7762,6347 C 7762,6417 7747,6486 7717,6547 7687,6608 7645,6658 7593,6693 7542,6728 7484,6747 7425,6747 7365,6747 7307,6728 7256,6693 7205,6658 7162,6608 7132,6547 7103,6486 7087,6417 7087,6347 7087,6277 7103,6208 7132,6147 7162,6086 7205,6036 7256,6001 7307,5966 7365,5947 7425,5947 7484,5947 7542,5966 7593,6001 7645,6036 7687,6086 7717,6147 7747,6208 7762,6277 7762,6347 L 7762,6347 Z"/>
         <path fill="rgb(255,255,255)" stroke="none" d="M 7728,6347 C 7728,6410 7714,6472 7688,6527 7661,6581 7623,6627 7576,6658 7530,6690 7478,6707 7425,6707 7371,6707 7319,6690 7273,6658 7227,6627 7188,6581 7162,6527 7135,6472 7121,6410 7121,6347 7121,6284 7135,6222 7162,6167 7188,6112 7227,6067 7273,6035 7319,6004 7371,5987 7425,5987 7478,5987 7530,6004 7576,6035 7623,6067 7661,6112 7688,6167 7714,6222 7728,6284 7728,6347 L 7728,6347 Z"/>
        </g>
        <g clip-path="url(#clip_path_1)">
         <path fill="none" stroke="rgb(0,0,0)" stroke-width="165" stroke-linejoin="miter" d="M 7856,5633 L 7541,5633 6806,6907 7746,6907 7856,5633 7856,5633 Z"/>
         <path fill="none" stroke="rgb(0,0,0)" stroke-width="165" stroke-linejoin="miter" d="M 7678,5772 L 7425,6347"/>
         <path fill="none" stroke="rgb(0,0,0)" stroke-width="165" stroke-linejoin="miter" stroke-linecap="round" d="M 8316,6122 L 9503,6122"/>
         <path fill="none" stroke="rgb(0,0,0)" stroke-width="165" stroke-linejoin="miter" stroke-linecap="round" d="M 8214,6668 L 9219,6668"/>
         <path fill="none" stroke="rgb(0,0,0)" stroke-width="165" stroke-linejoin="miter" stroke-linecap="round" d="M 8120,7120 L 8803,7120"/>
        </g>
        <defs>
         <clipPath id="clip_path_8" clipPathUnits="userSpaceOnUse">
          <path d="M 6373,8465 C 6515,8110 6456,7689 6219,7390 6005,7656 5752,7907 5481,8103 L 5500,8116 5508,8121 C 5780,8300 6058,8391 6373,8465 Z"/>
         </clipPath>
        </defs>
        <g clip-path="url(#clip_path_8)">
         <path fill="rgb(214,214,214)" stroke="none" d="M 6913,8033 C 6913,7875 6874,7719 6800,7582 6726,7445 6620,7331 6492,7252 6364,7173 6219,7131 6071,7131 5923,7131 5778,7173 5650,7252 5522,7331 5416,7445 5342,7582 5268,7719 5230,7875 5230,8033 5230,8192 5268,8347 5342,8485 5416,8622 5522,8736 5650,8815 5778,8894 5923,8936 6071,8936 6219,8936 6364,8894 6492,8815 6620,8736 6726,8622 6800,8485 6874,8347 6913,8192 6913,8033 L 6913,8033 Z"/>
         <path fill="rgb(214,214,214)" stroke="none" d="M 6626,8033 C 6626,7929 6601,7826 6552,7736 6503,7645 6433,7570 6349,7518 6264,7466 6169,7438 6071,7438 5974,7438 5878,7466 5794,7518 5709,7570 5639,7645 5590,7736 5542,7826 5516,7929 5516,8033 5516,8138 5542,8241 5590,8331 5639,8422 5709,8497 5794,8549 5878,8601 5974,8629 6071,8629 6169,8629 6264,8601 6349,8549 6433,8497 6503,8422 6552,8331 6601,8241 6626,8138 6626,8033 L 6626,8033 Z"/>
         <path fill="rgb(220,220,220)" stroke="none" d="M 6587,8033 C 6587,7936 6563,7841 6518,7757 6472,7673 6407,7603 6329,7555 6251,7506 6162,7481 6071,7481 5981,7481 5892,7506 5813,7555 5735,7603 5670,7673 5625,7757 5579,7841 5556,7936 5556,8033 5556,8130 5579,8226 5625,8310 5670,8394 5735,8464 5813,8512 5892,8561 5981,8586 6071,8586 6162,8586 6251,8561 6329,8512 6407,8464 6472,8394 6518,8310 6563,8226 6587,8130 6587,8033 L 6587,8033 Z"/>
         <path fill="rgb(226,226,226)" stroke="none" d="M 6547,8033 C 6547,7944 6525,7856 6483,7778 6442,7701 6381,7636 6309,7591 6237,7547 6155,7523 6071,7523 5988,7523 5906,7547 5833,7591 5761,7636 5701,7701 5659,7778 5617,7856 5595,7944 5595,8033 5595,8123 5617,8211 5659,8289 5701,8366 5761,8431 5833,8475 5906,8520 5988,8544 6071,8544 6155,8544 6237,8520 6309,8475 6381,8431 6442,8366 6483,8289 6525,8211 6547,8123 6547,8033 L 6547,8033 Z"/>
         <path fill="rgb(232,232,232)" stroke="none" d="M 6507,8033 C 6507,7951 6487,7871 6449,7800 6411,7728 6356,7669 6289,7628 6223,7587 6148,7566 6071,7566 5995,7566 5919,7587 5853,7628 5787,7669 5732,7728 5693,7800 5655,7871 5635,7951 5635,8033 5635,8116 5655,8196 5693,8267 5732,8338 5787,8397 5853,8439 5919,8480 5995,8501 6071,8501 6148,8501 6223,8480 6289,8439 6356,8397 6411,8338 6449,8267 6487,8196 6507,8116 6507,8033 L 6507,8033 Z"/>
         <path fill="rgb(237,237,237)" stroke="none" d="M 6468,8033 C 6468,7959 6449,7885 6415,7821 6380,7756 6330,7702 6269,7665 6209,7628 6141,7608 6071,7608 6002,7608 5933,7628 5873,7665 5813,7702 5763,7756 5728,7821 5693,7885 5675,7959 5675,8033 5675,8108 5693,8181 5728,8246 5763,8311 5813,8364 5873,8402 5933,8439 6002,8459 6071,8459 6141,8459 6209,8439 6269,8402 6330,8364 6380,8311 6415,8246 6449,8181 6468,8108 6468,8033 L 6468,8033 Z"/>
         <path fill="rgb(243,243,243)" stroke="none" d="M 6428,8033 C 6428,7966 6412,7900 6380,7842 6349,7784 6304,7736 6250,7702 6195,7668 6134,7651 6071,7651 6009,7651 5947,7668 5893,7702 5839,7736 5793,7784 5762,7842 5731,7900 5714,7966 5714,8033 5714,8101 5731,8167 5762,8225 5793,8283 5839,8331 5893,8365 5947,8398 6009,8416 6071,8416 6134,8416 6195,8398 6250,8365 6304,8331 6349,8283 6380,8225 6412,8167 6428,8101 6428,8033 L 6428,8033 Z"/>
         <path fill="rgb(249,249,249)" stroke="none" d="M 6388,8033 C 6388,7974 6374,7915 6346,7863 6318,7812 6278,7769 6230,7739 6182,7709 6127,7693 6071,7693 6016,7693 5961,7709 5913,7739 5864,7769 5824,7812 5796,7863 5769,7915 5754,7974 5754,8033 5754,8093 5769,8152 5796,8204 5824,8255 5864,8298 5913,8328 5961,8358 6016,8374 6071,8374 6127,8374 6182,8358 6230,8328 6278,8298 6318,8255 6346,8204 6374,8152 6388,8093 6388,8033 L 6388,8033 Z"/>
         <path fill="rgb(255,255,255)" stroke="none" d="M 6349,8033 C 6349,7981 6336,7930 6312,7885 6287,7839 6252,7802 6210,7776 6168,7749 6120,7736 6071,7736 6022,7736 5975,7749 5932,7776 5890,7802 5855,7839 5831,7885 5806,7930 5794,7981 5794,8033 5794,8086 5806,8137 5831,8182 5855,8228 5890,8265 5932,8291 5975,8317 6022,8331 6071,8331 6120,8331 6168,8317 6210,8291 6252,8265 6287,8228 6312,8182 6336,8137 6349,8086 6349,8033 L 6349,8033 Z"/>
        </g>
        <g clip-path="url(#clip_path_1)">
         <path fill="none" stroke="rgb(0,0,0)" stroke-width="116" stroke-linejoin="miter" d="M 5508,8121 C 5780,8300 6058,8391 6373,8465 6515,8110 6456,7689 6219,7390 6005,7656 5752,7907 5481,8103 L 5500,8116 5508,8121 5508,8121 Z"/>
        </g>
       </g>
      </g>
      <g class="com.sun.star.drawing.CustomShape">
       <g id="id4">
        <rect class="BoundingBox" stroke="none" fill="none" x="6831" y="8691" width="3754" height="722"/>
        <path fill="rgb(24,163,3)" stroke="none" d="M 8708,9411 L 6832,9411 6832,8692 10583,8692 10583,9411 8708,9411 Z"/>
        <path fill="none" stroke="rgb(52,101,164)" d="M 8708,9411 L 6832,9411 6832,8692 10583,8692 10583,9411 8708,9411 Z"/>
       </g>
      </g>
      <g class="com.sun.star.drawing.CustomShape">
       <g id="id5">
        <rect class="BoundingBox" stroke="none" fill="none" x="8282" y="7593" width="940" height="2993"/>
        <path fill="rgb(24,163,3)" stroke="none" d="M 8752,10584 L 8283,10584 8283,7594 9220,7594 9220,10584 8752,10584 Z"/>
        <path fill="none" stroke="rgb(52,101,164)" d="M 8752,10584 L 8283,10584 8283,7594 9220,7594 9220,10584 8752,10584 Z"/>
       </g>
      </g>
     </g>
    </g>
   </g>
  </g>
 </g>
</svg>